<svg id="Layer_1" data-name="Layer 1" xmlns="http://www.w3.org/2000/svg" viewBox="0 0 955.87 250.4"><defs><style>.cls-1{fill:#2774ae;}.cls-2{fill:#003b5c;}</style></defs><path class="cls-1" d="M74,28.77c37,0,66.43,27.09,66.43,66s-29.45,66-66.43,66-66.44-27.09-66.44-66S37,28.77,74,28.77Zm0,24.51C52,53.28,35.47,69.62,35.47,94.77S52,136.27,74,136.27s38.48-16.34,38.48-41.5S95.89,53.28,74,53.28Z" transform="translate(-7.52 -28.77)"/><path class="cls-1" d="M161,68.54c10.32-4.3,26-8,41.93-8,31.39,0,52.67,17.84,52.67,48.16,0,33.32-20,52-53.32,52a52.44,52.44,0,0,1-15.26-1.94v38.48H161Zm26,67.73a40.57,40.57,0,0,0,13.33,1.93c16.55,0,29-8.81,29-28.59,0-16.56-11-25.8-26.87-25.8-5.16,0-11.18.64-15.48,2.36Z" transform="translate(-7.52 -28.77)"/><path class="cls-1" d="M295.62,117.78v.43c1.93,13.54,15.26,20.42,28.16,20.42s22.58-3,32-8.6V152c-8.82,6.24-21.72,8.82-34.62,8.82-31.17,0-50.74-19.14-50.74-49,0-31.61,20-51.17,46.87-51.17,29.89,0,41.5,19.78,41.5,45.15v12Zm39.13-15.48c-.22-11.83-5.81-20.43-18.06-20.43-11.18,0-18.49,8-20.86,20.43Z" transform="translate(-7.52 -28.77)"/><path class="cls-1" d="M380.76,69a139.08,139.08,0,0,1,45.79-8.38c24.94,0,41.07,9.24,41.07,37.84v60.19h-26V100.15c0-10.75-5.8-16.34-17-16.34a61,61,0,0,0-18.06,2.79v72h-25.8Z" transform="translate(-7.52 -28.77)"/><path class="cls-1" d="M492.56,30.92h27.3v77.4c0,22.79,10.53,29.67,27.09,29.67a127.31,127.31,0,0,0,22.57-1.94V30.92h27.31V154.54c-11.4,3.44-34,6.24-49.88,6.24-29,0-54.39-11-54.39-46.87Z" transform="translate(-7.52 -28.77)"/><path class="cls-1" d="M719.59,66.61c-8.17-8.17-20.21-13.33-34.83-13.33-23,0-38,17-38,41.49,0,25.16,16.34,41.5,39.13,41.5,14.62,0,25.15-4.3,35.9-13.12v28.16c-11.82,7.1-24.08,9.47-37,9.47-40,0-66-27.09-66-66,0-39.13,27.09-66,66-66,12.9,0,24.51,2.58,34.83,8.6Z" transform="translate(-7.52 -28.77)"/><path class="cls-1" d="M744.53,30.92h27.3V134.76h50.1v23.86h-77.4Z" transform="translate(-7.52 -28.77)"/><path class="cls-1" d="M869.66,131.54l-9.89,27.08h-28.6l49.45-127.7h32.89l49.88,127.7H933.72l-9.89-27.08ZM897,57.36l-19.13,52h38Z" transform="translate(-7.52 -28.77)"/><path class="cls-2" d="M11.79,218.77H22l18.57,32.62V218.77h9.11v46.79H40L20.9,232.36v33.2H11.79Z" transform="translate(-7.52 -28.77)"/><path class="cls-2" d="M83.63,231.66a14.09,14.09,0,0,1,6,5.12,17.11,17.11,0,0,1,2.75,7.15,42.76,42.76,0,0,1,.3,6.87H67.47q.21,5.2,3.61,7.3a9.2,9.2,0,0,0,5,1.3,7.63,7.63,0,0,0,5-1.59A7.47,7.47,0,0,0,83,255.43h9.23a11.26,11.26,0,0,1-3.35,6.25q-4.65,5.06-13,5.05a18.84,18.84,0,0,1-12.18-4.26q-5.28-4.25-5.28-13.85,0-9,4.76-13.78A16.67,16.67,0,0,1,75.49,230,19.72,19.72,0,0,1,83.63,231.66ZM70.1,239.48a9.37,9.37,0,0,0-2.41,5.35H83.27a7.52,7.52,0,0,0-2.41-5.46,7.89,7.89,0,0,0-5.36-1.87A7.17,7.17,0,0,0,70.1,239.48Z" transform="translate(-7.52 -28.77)"/><path class="cls-2" d="M116.48,231h9.17l5.27,24.92L136.31,231h9.43l-10,34.6h-9.3L121,240.36l-5.49,25.2H106.1L96.39,231h9.71l5.39,24.82Z" transform="translate(-7.52 -28.77)"/><path class="cls-2" d="M160.66,254.51a6.08,6.08,0,0,0,1.24,3.43q1.69,1.81,6.25,1.81a9.69,9.69,0,0,0,4.26-.79,2.66,2.66,0,0,0,.31-4.7q-1.28-.8-9.46-2.73c-3.94-1-6.7-2.19-8.31-3.65a7.9,7.9,0,0,1-2.41-6.22,10.79,10.79,0,0,1,3.76-8.24q3.78-3.43,10.61-3.44,6.5,0,10.58,2.58t4.69,8.94h-9.05a5.3,5.3,0,0,0-1-2.76q-1.5-1.85-5.1-1.84a7.27,7.27,0,0,0-4.21.92,2.64,2.64,0,0,0-1.26,2.16,2.37,2.37,0,0,0,1.34,2.25c.89.49,4,1.32,9.44,2.51,3.6.84,6.31,2.12,8.1,3.84a8.69,8.69,0,0,1,2.67,6.5,10.53,10.53,0,0,1-3.83,8.4q-3.84,3.25-11.85,3.25-8.17,0-12.07-3.44a11.22,11.22,0,0,1-3.89-8.78Z" transform="translate(-7.52 -28.77)"/><path class="cls-2" d="M227.41,244.51a14.23,14.23,0,0,0,3.61-.79,2.72,2.72,0,0,0,1.95-2.57,3,3,0,0,0-1.5-2.94,9.42,9.42,0,0,0-4.39-.81c-2.16,0-3.7.53-4.6,1.59a6.52,6.52,0,0,0-1.28,3.18h-8.73a13.2,13.2,0,0,1,2.55-7.46q3.6-4.58,12.37-4.57a22.05,22.05,0,0,1,10.13,2.25q4.44,2.25,4.43,8.51v15.87c0,1.1,0,2.43.07,4a5,5,0,0,0,.54,2.42,3.18,3.18,0,0,0,1.33,1v1.34h-9.84a9.48,9.48,0,0,1-.57-2c-.11-.61-.19-1.31-.26-2.1a18.32,18.32,0,0,1-4.34,3.46,13,13,0,0,1-6.64,1.69,11.43,11.43,0,0,1-7.8-2.69c-2.06-1.78-3.08-4.32-3.08-7.6q0-6.38,4.95-9.23a22.17,22.17,0,0,1,8-2.23Zm5.53,4.23a9.91,9.91,0,0,1-1.76.87,14.83,14.83,0,0,1-2.42.62l-2.06.38a13.48,13.48,0,0,0-4.16,1.24,4.11,4.11,0,0,0-2.14,3.84,4,4,0,0,0,1.31,3.34,5,5,0,0,0,3.17,1,9.45,9.45,0,0,0,5.46-1.72c1.67-1.14,2.53-3.22,2.6-6.25Z" transform="translate(-7.52 -28.77)"/><path class="cls-2" d="M280.68,233q3.39,2.81,3.39,9.31v23.3h-9.26V244.51a9.72,9.72,0,0,0-.73-4.19q-1.32-2.65-5-2.66a6.25,6.25,0,0,0-6.27,3.9,13.48,13.48,0,0,0-.88,5.27v18.73h-9V231h8.76v5a15.31,15.31,0,0,1,3.29-3.84,11.35,11.35,0,0,1,7.05-2.09A13.24,13.24,0,0,1,280.68,233Z" transform="translate(-7.52 -28.77)"/><path class="cls-2" d="M313.75,231.52a10.92,10.92,0,0,1,4,3.82v-16.5h9.17v46.72H318.1v-4.8a12.7,12.7,0,0,1-4.41,4.48,12.39,12.39,0,0,1-6.16,1.4,12.85,12.85,0,0,1-10.2-4.91q-4.14-4.91-4.14-12.58,0-8.86,4.08-13.94a13.26,13.26,0,0,1,10.9-5.07A11.15,11.15,0,0,1,313.75,231.52ZM316,256.16a12.63,12.63,0,0,0,2-7.39q0-6.35-3.21-9.08A6.9,6.9,0,0,0,310.2,238a6.33,6.33,0,0,0-5.82,3,16.16,16.16,0,0,0,0,15.11,6.4,6.4,0,0,0,5.73,2.87A6.68,6.68,0,0,0,316,256.16Z" transform="translate(-7.52 -28.77)"/><path class="cls-2" d="M359.75,218.77h9.94v28.74q0,4.81,1.14,7,1.77,3.93,7.71,3.93c3.94,0,6.51-1.31,7.69-3.93q1.14-2.22,1.14-7V218.77h9.93v28.76q0,7.46-2.31,11.62-4.32,7.61-16.45,7.61t-16.47-7.61q-2.32-4.17-2.32-11.62Z" transform="translate(-7.52 -28.77)"/><path class="cls-2" d="M438,234.68q4.23,4.47,4.23,13.13,0,9.15-4.13,13.94a13.45,13.45,0,0,1-10.66,4.79,11.24,11.24,0,0,1-6.9-2.06,13,13,0,0,1-2.93-3.34v18h-8.95V231h8.66v5.11a14.38,14.38,0,0,1,3.13-3.55,11.52,11.52,0,0,1,7.22-2.32A13.65,13.65,0,0,1,438,234.68Zm-6.94,6.5a6.44,6.44,0,0,0-6-3.08,6.81,6.81,0,0,0-6.83,4.67,17.53,17.53,0,0,0-1,6.28q0,6,3.23,8.48a7.46,7.46,0,0,0,4.56,1.43,6.64,6.64,0,0,0,5.82-2.92,15.33,15.33,0,0,0,.16-14.86Z" transform="translate(-7.52 -28.77)"/><path class="cls-2" d="M469.86,231.52a11,11,0,0,1,4,3.82v-16.5H483v46.72h-8.79v-4.8a12.7,12.7,0,0,1-4.41,4.48,12.39,12.39,0,0,1-6.16,1.4,12.85,12.85,0,0,1-10.2-4.91q-4.14-4.91-4.14-12.58,0-8.86,4.08-13.94a13.26,13.26,0,0,1,10.9-5.07A11.15,11.15,0,0,1,469.86,231.52Zm2.22,24.64a12.56,12.56,0,0,0,2-7.39q0-6.35-3.2-9.08a6.9,6.9,0,0,0-4.57-1.65,6.36,6.36,0,0,0-5.83,3,14,14,0,0,0-1.85,7.44,13.78,13.78,0,0,0,1.89,7.67,6.38,6.38,0,0,0,5.73,2.87A6.65,6.65,0,0,0,472.08,256.16Z" transform="translate(-7.52 -28.77)"/><path class="cls-2" d="M507.85,244.51a14.12,14.12,0,0,0,3.61-.79,2.72,2.72,0,0,0,1.95-2.57,3.05,3.05,0,0,0-1.49-2.94,9.45,9.45,0,0,0-4.39-.81q-3.25,0-4.6,1.59a6.43,6.43,0,0,0-1.29,3.18h-8.73a13.2,13.2,0,0,1,2.55-7.46q3.6-4.58,12.37-4.57A22.05,22.05,0,0,1,518,232.39q4.44,2.25,4.44,8.51v15.87q0,1.65.06,4a5,5,0,0,0,.54,2.42,3.18,3.18,0,0,0,1.33,1v1.34h-9.84a10.89,10.89,0,0,1-.57-2c-.1-.61-.19-1.31-.25-2.1a18.73,18.73,0,0,1-4.34,3.46,13.07,13.07,0,0,1-6.64,1.69,11.46,11.46,0,0,1-7.81-2.69,9.54,9.54,0,0,1-3.08-7.6q0-6.38,5-9.23a22.11,22.11,0,0,1,8-2.23Zm5.53,4.23a9.83,9.83,0,0,1-1.75.87,15,15,0,0,1-2.43.62l-2.06.38a13.48,13.48,0,0,0-4.16,1.24,4.12,4.12,0,0,0-2.13,3.84,4,4,0,0,0,1.3,3.34,5,5,0,0,0,3.17,1,9.51,9.51,0,0,0,5.47-1.72c1.66-1.14,2.53-3.22,2.59-6.25Z" transform="translate(-7.52 -28.77)"/><path class="cls-2" d="M529.67,237.72v-6.44h4.82v-9.65h9v9.65h5.62v6.44h-5.62V256c0,1.42.18,2.3.54,2.65s1.46.53,3.3.53l.88,0,.9-.05v6.76l-4.28.16q-6.42.23-8.76-2.22a6.59,6.59,0,0,1-1.53-4.79v-21.3Z" transform="translate(-7.52 -28.77)"/><path class="cls-2" d="M580.34,231.66a14.15,14.15,0,0,1,6,5.12,17.11,17.11,0,0,1,2.75,7.15,42.76,42.76,0,0,1,.3,6.87h-25.2q.21,5.2,3.62,7.3a9.16,9.16,0,0,0,5,1.3,7,7,0,0,0,6.88-4h9.24a11.29,11.29,0,0,1-3.36,6.25q-4.65,5.06-13,5.05a18.85,18.85,0,0,1-12.19-4.26q-5.28-4.25-5.28-13.85,0-9,4.77-13.78A16.67,16.67,0,0,1,572.2,230,19.75,19.75,0,0,1,580.34,231.66Zm-13.53,7.82a9.31,9.31,0,0,0-2.41,5.35H580a7.56,7.56,0,0,0-2.41-5.46,7.9,7.9,0,0,0-5.37-1.87A7.13,7.13,0,0,0,566.81,239.48Z" transform="translate(-7.52 -28.77)"/><path class="cls-2" d="M603.88,254.51a6,6,0,0,0,1.25,3.43c1.12,1.21,3.21,1.81,6.25,1.81a9.67,9.67,0,0,0,4.25-.79,2.66,2.66,0,0,0,.31-4.7q-1.28-.8-9.46-2.73-5.9-1.46-8.31-3.65a7.9,7.9,0,0,1-2.41-6.22,10.76,10.76,0,0,1,3.77-8.24q3.76-3.43,10.6-3.44,6.5,0,10.58,2.58t4.69,8.94h-9a5.39,5.39,0,0,0-1-2.76q-1.5-1.85-5.09-1.84a7.28,7.28,0,0,0-4.22.92A2.64,2.64,0,0,0,604.8,240a2.37,2.37,0,0,0,1.34,2.25c.89.49,4,1.32,9.44,2.51q5.42,1.26,8.11,3.84a8.72,8.72,0,0,1,2.66,6.5,10.5,10.5,0,0,1-3.83,8.4q-3.82,3.25-11.84,3.25-8.17,0-12.07-3.44a11.2,11.2,0,0,1-3.9-8.78Z" transform="translate(-7.52 -28.77)"/></svg>