<svg id="Layer_1" data-name="Layer 1" xmlns="http://www.w3.org/2000/svg" viewBox="0 0 800 172"><defs><style>.cls-1{fill:#c3d7ee;}.cls-2{fill:#8bb8e8;}.cls-3{fill:#2774ae;}.cls-4{isolation:isolate;}.cls-5{fill:#003b5c;}</style></defs><rect class="cls-1" width="800" height="172"/><g id="art"><polygon class="cls-2" points="113.4 98.1 111 26.2 94.3 33.5 96.2 91 96.2 91 58 131.9 65.5 149.2 113.4 98.1"/><polyline class="cls-3" points="60.4 0 94.3 33.5 111 26.2 84.4 0"/><polyline class="cls-3" points="0 149.6 65.5 149.2 58 131.9 0 132.3"/></g><g class="cls-4"><path class="cls-5" d="M231.1,44.1v5.36h-9V74.33H215.7V49.46h-9.08V44.1Z"/><path class="cls-5" d="M257.33,71.65q-3.42,3.52-9.9,3.52t-9.91-3.52q-4.59-4.34-4.59-12.47,0-8.31,4.59-12.47,3.43-3.52,9.91-3.53t9.9,3.53q4.57,4.15,4.58,12.47Q261.91,67.31,257.33,71.65Zm-3.94-4.6c1.47-1.84,2.2-4.47,2.2-7.87s-.73-6-2.2-7.87a7.22,7.22,0,0,0-6-2.78,7.32,7.32,0,0,0-6,2.77c-1.49,1.85-2.23,4.47-2.23,7.88s.74,6,2.23,7.87a7.3,7.3,0,0,0,6,2.77A7.21,7.21,0,0,0,253.39,67.05Z"/><path class="cls-5" d="M286.78,44.1h9.09V74.33H290V53.89c0-.59,0-1.42,0-2.48s0-1.87,0-2.45l-5.73,25.37h-6.13L272.47,49c0,.58,0,1.4,0,2.45s0,1.89,0,2.48V74.33h-5.89V44.1h9.2l5.5,23.77Z"/><path class="cls-5" d="M324.07,49.46h-16v6.42h14.68v5.24H308.07V68.9H324.8v5.43H301.9V44.1h22.17Z"/><path class="cls-5" d="M331.29,52.84h6.21V59h-6.21Zm0,15.36h6.21v6.13h-6.21Z"/><path class="cls-5" d="M377.35,44.1v5.36H368.3V74.33h-6.36V49.46h-9.08V44.1Z"/><path class="cls-5" d="M396.11,71.6q-2.83,3.5-8.59,3.49t-8.6-3.49a13.87,13.87,0,0,1,0-16.79q2.83-3.56,8.6-3.55t8.59,3.55a13.87,13.87,0,0,1,0,16.79Zm-4.68-3.23a8.47,8.47,0,0,0,1.38-5.18A8.38,8.38,0,0,0,391.43,58a4.62,4.62,0,0,0-3.93-1.82A4.67,4.67,0,0,0,383.55,58a8.38,8.38,0,0,0-1.38,5.17,8.47,8.47,0,0,0,1.38,5.18,4.67,4.67,0,0,0,3.95,1.82A4.62,4.62,0,0,0,391.43,68.37Z"/><path class="cls-5" d="M413.67,52h5.92L423,68.08,426.48,52h6.09l-6.48,22.35h-6l-3.5-16.28L413,74.33H407L400.68,52H407l3.49,16Z"/><path class="cls-5" d="M444.65,60.74a9.17,9.17,0,0,0,2.33-.52,1.75,1.75,0,0,0,1.26-1.66,2,2,0,0,0-1-1.9,6.2,6.2,0,0,0-2.83-.52,3.73,3.73,0,0,0-3,1,4.28,4.28,0,0,0-.83,2H435a8.63,8.63,0,0,1,1.65-4.82c1.55-2,4.22-2.95,8-2.95a14.26,14.26,0,0,1,6.55,1.45Q454,54.36,454,58.4V68.65c0,.71,0,1.57,0,2.59a3.24,3.24,0,0,0,.34,1.55,2.11,2.11,0,0,0,.87.68v.86h-6.36a6.37,6.37,0,0,1-.37-1.27c-.07-.4-.12-.85-.16-1.35a12.22,12.22,0,0,1-2.81,2.23A8.45,8.45,0,0,1,441.31,75a7.4,7.4,0,0,1-5-1.73,6.18,6.18,0,0,1-2-4.92,6.35,6.35,0,0,1,3.2-6A14.33,14.33,0,0,1,442.64,61Zm3.57,2.72a6.31,6.31,0,0,1-1.13.57,10.94,10.94,0,0,1-1.57.4l-1.33.24a8.87,8.87,0,0,0-2.69.8A2.68,2.68,0,0,0,440.12,68a2.62,2.62,0,0,0,.84,2.17,3.25,3.25,0,0,0,2.05.66,6.07,6.07,0,0,0,3.53-1.1c1.08-.74,1.64-2.09,1.68-4Z"/><path class="cls-5" d="M471.57,51.46l.5,0v6l-1-.08-.7,0q-3.52,0-4.74,2.3a9,9,0,0,0-.67,4V74.33h-5.89V52h5.58v3.9A12.21,12.21,0,0,1,467,52.82a6.38,6.38,0,0,1,4.26-1.37Z"/><path class="cls-5" d="M487.35,52.34a7,7,0,0,1,2.56,2.47V44.14h5.93V74.33h-5.68V71.24a8.21,8.21,0,0,1-2.85,2.89,8,8,0,0,1-4,.9,8.31,8.31,0,0,1-6.59-3.17,12.13,12.13,0,0,1-2.68-8.13c0-3.81.88-6.82,2.64-9a8.55,8.55,0,0,1,7-3.28A7.16,7.16,0,0,1,487.35,52.34Zm1.44,15.92a8.16,8.16,0,0,0,1.29-4.78c0-2.73-.69-4.69-2.07-5.86a4.49,4.49,0,0,0-3-1.07,4.1,4.1,0,0,0-3.76,1.94,9,9,0,0,0-1.2,4.81,8.93,8.93,0,0,0,1.22,5,4.12,4.12,0,0,0,3.7,1.86A4.33,4.33,0,0,0,488.79,68.26Z"/><path class="cls-5" d="M521.67,60.74a9.16,9.16,0,0,0,2.34-.52,1.75,1.75,0,0,0,1.26-1.66,2,2,0,0,0-1-1.9,6.22,6.22,0,0,0-2.84-.52,3.7,3.7,0,0,0-3,1,4.28,4.28,0,0,0-.83,2H512a8.49,8.49,0,0,1,1.65-4.82q2.33-3,8-2.95a14.26,14.26,0,0,1,6.55,1.45q2.87,1.45,2.86,5.5V68.65c0,.71,0,1.57,0,2.59a3.22,3.22,0,0,0,.35,1.55,2.07,2.07,0,0,0,.86.68v.86H526a6.37,6.37,0,0,1-.37-1.27c-.07-.4-.13-.85-.17-1.35a12,12,0,0,1-2.8,2.23A8.45,8.45,0,0,1,518.34,75a7.44,7.44,0,0,1-5.05-1.73,6.21,6.21,0,0,1-2-4.92,6.37,6.37,0,0,1,3.2-6A14.45,14.45,0,0,1,519.67,61Zm3.58,2.72a6.39,6.39,0,0,1-1.14.57,10.6,10.6,0,0,1-1.57.4l-1.33.24a8.89,8.89,0,0,0-2.68.8A2.68,2.68,0,0,0,517.15,68a2.62,2.62,0,0,0,.84,2.17,3.23,3.23,0,0,0,2,.66,6.07,6.07,0,0,0,3.53-1.1c1.08-.74,1.64-2.09,1.68-4Z"/><path class="cls-5" d="M554.2,53.26q2.2,1.82,2.2,6v15h-6V60.74a6.28,6.28,0,0,0-.47-2.71,3.27,3.27,0,0,0-3.25-1.72,4.05,4.05,0,0,0-4.06,2.52,8.71,8.71,0,0,0-.57,3.4v12.1h-5.84V52h5.66v3.26A9.93,9.93,0,0,1,544,52.8a7.39,7.39,0,0,1,4.56-1.35A8.54,8.54,0,0,1,554.2,53.26Z"/><path class="cls-5" d="M597.25,71.65q-3.42,3.52-9.9,3.52t-9.91-3.52q-4.59-4.34-4.59-12.47,0-8.31,4.59-12.47,3.42-3.52,9.91-3.53t9.9,3.53q4.57,4.15,4.57,12.47Q601.82,67.31,597.25,71.65Zm-4-4.6c1.47-1.84,2.21-4.47,2.21-7.87s-.74-6-2.21-7.87a7.2,7.2,0,0,0-5.95-2.78,7.31,7.31,0,0,0-6,2.77c-1.49,1.85-2.24,4.47-2.24,7.88s.75,6,2.24,7.87a7.28,7.28,0,0,0,6,2.77A7.19,7.19,0,0,0,593.3,67.05Z"/><path class="cls-5" d="M625,54.38c1.82,1.93,2.74,4.76,2.74,8.49,0,3.94-.9,6.94-2.68,9a8.65,8.65,0,0,1-6.88,3.1,7.21,7.21,0,0,1-4.46-1.34,8.56,8.56,0,0,1-1.9-2.15V83.13H606V52h5.6v3.3a9.27,9.27,0,0,1,2-2.3,7.51,7.51,0,0,1,4.66-1.49A8.83,8.83,0,0,1,625,54.38Zm-4.49,4.2a4.16,4.16,0,0,0-3.86-2,4.4,4.4,0,0,0-4.41,3,11.18,11.18,0,0,0-.62,4.06c0,2.6.69,4.42,2.09,5.47a4.75,4.75,0,0,0,2.94.93,4.27,4.27,0,0,0,3.76-1.89,9.84,9.84,0,0,0,.1-9.6Z"/><path class="cls-5" d="M646.39,52.43a9.12,9.12,0,0,1,3.87,3.31A11.05,11.05,0,0,1,652,60.36a29.52,29.52,0,0,1,.19,4.44H636q.13,3.36,2.34,4.71a5.92,5.92,0,0,0,3.22.84,5,5,0,0,0,3.24-1A4.84,4.84,0,0,0,646,67.79h6a7.28,7.28,0,0,1-2.16,4c-2,2.17-4.81,3.26-8.41,3.26a12.22,12.22,0,0,1-7.88-2.75q-3.4-2.75-3.41-9,0-5.8,3.08-8.91a10.82,10.82,0,0,1,8-3.1A12.69,12.69,0,0,1,646.39,52.43Zm-8.74,5a6,6,0,0,0-1.56,3.46h10.07a4.82,4.82,0,0,0-1.56-3.53,5.07,5.07,0,0,0-3.46-1.21A4.65,4.65,0,0,0,637.65,57.48Z"/><path class="cls-5" d="M673.21,53.26c1.46,1.21,2.2,3.22,2.2,6v15h-6V60.74A6.28,6.28,0,0,0,669,58a3.29,3.29,0,0,0-3.26-1.72,4,4,0,0,0-4.05,2.52,8.71,8.71,0,0,0-.57,3.4v12.1h-5.84V52h5.66v3.26A9.54,9.54,0,0,1,663,52.8a7.38,7.38,0,0,1,4.55-1.35A8.55,8.55,0,0,1,673.21,53.26Z"/><path class="cls-5" d="M222.56,94.5h9.09v30.23h-5.89V104.29c0-.59,0-1.41,0-2.48s0-1.87,0-2.45l-5.73,25.37h-6.13l-5.69-25.37c0,.58,0,1.4,0,2.45s0,1.89,0,2.48v20.44H202.4V94.5h9.19l5.51,23.77Z"/><path class="cls-5" d="M255.66,122q-2.82,3.5-8.59,3.49T238.48,122a13.87,13.87,0,0,1,0-16.79q2.82-3.55,8.59-3.55t8.59,3.55a13.87,13.87,0,0,1,0,16.79ZM251,118.77a10.46,10.46,0,0,0,0-10.35,5.19,5.19,0,0,0-7.89,0,10.39,10.39,0,0,0,0,10.35,5.19,5.19,0,0,0,7.89,0Z"/><path class="cls-5" d="M280.7,103.66q2.21,1.82,2.2,6v15h-6V111.14a6.28,6.28,0,0,0-.47-2.71,3.29,3.29,0,0,0-3.26-1.72,4,4,0,0,0-4.05,2.52,8.71,8.71,0,0,0-.57,3.4v12.1h-5.84V102.42h5.66v3.26a9.91,9.91,0,0,1,2.12-2.48,7.38,7.38,0,0,1,4.55-1.35A8.55,8.55,0,0,1,280.7,103.66Z"/><path class="cls-5" d="M307,122q-2.82,3.5-8.59,3.49T289.79,122a13.87,13.87,0,0,1,0-16.79q2.82-3.55,8.59-3.55t8.59,3.55A13.87,13.87,0,0,1,307,122Zm-4.67-3.23a10.46,10.46,0,0,0,0-10.35,5.19,5.19,0,0,0-7.89,0,10.39,10.39,0,0,0,0,10.35,5.19,5.19,0,0,0,7.89,0Z"/><path class="cls-5" d="M325,102.36a7.08,7.08,0,0,1,3.45,3.24v-3.22h5.7v21.2c0,2.89-.49,5.06-1.46,6.53q-2.5,3.76-9.6,3.77a13.08,13.08,0,0,1-7-1.68,6.19,6.19,0,0,1-3-5h6.35a2.65,2.65,0,0,0,.8,1.48,5,5,0,0,0,3.18.8q3.16,0,4.23-2.11a10.84,10.84,0,0,0,.69-4.56v-1.43a7.11,7.11,0,0,1-1.8,2.15,7.24,7.24,0,0,1-4.53,1.33,8.56,8.56,0,0,1-6.88-3,12.22,12.22,0,0,1-2.58-8.19,13.82,13.82,0,0,1,2.48-8.38,8.18,8.18,0,0,1,7-3.39A7.66,7.66,0,0,1,325,102.36Zm2,16q1.4-1.55,1.4-4.93a7.59,7.59,0,0,0-1.33-4.84,4.4,4.4,0,0,0-3.59-1.66,4.22,4.22,0,0,0-4.22,2.89,10.28,10.28,0,0,0-.62,3.8,8.58,8.58,0,0,0,.66,3.46,4.25,4.25,0,0,0,4.24,2.83A4.47,4.47,0,0,0,327,118.38Z"/><path class="cls-5" d="M352.06,101.86l.5,0v6c-.37,0-.7-.07-1-.09l-.7,0q-3.53,0-4.74,2.3a9,9,0,0,0-.67,4v10.68h-5.89V102.38h5.58v3.9a12.4,12.4,0,0,1,2.36-3.06,6.38,6.38,0,0,1,4.26-1.37Z"/><path class="cls-5" d="M364.84,111.14a9,9,0,0,0,2.33-.52,1.75,1.75,0,0,0,1.26-1.66,2,2,0,0,0-1-1.9,6.25,6.25,0,0,0-2.84-.52,3.7,3.7,0,0,0-3,1,4.09,4.09,0,0,0-.83,2.05h-5.64a8.55,8.55,0,0,1,1.64-4.82c1.56-2,4.22-3,8-3a14.28,14.28,0,0,1,6.55,1.45c1.9,1,2.86,2.8,2.86,5.5v10.25c0,.71,0,1.57,0,2.59a3.22,3.22,0,0,0,.35,1.55,2.07,2.07,0,0,0,.86.68v.86h-6.36a6.37,6.37,0,0,1-.37-1.27c-.07-.4-.12-.85-.16-1.35a12,12,0,0,1-2.81,2.23,8.4,8.4,0,0,1-4.29,1.09,7.43,7.43,0,0,1-5-1.73,6.17,6.17,0,0,1-2-4.91,6.37,6.37,0,0,1,3.2-6,14.33,14.33,0,0,1,5.17-1.44Zm3.57,2.72a6.31,6.31,0,0,1-1.13.57,10.6,10.6,0,0,1-1.57.4l-1.33.24a9,9,0,0,0-2.69.8,2.68,2.68,0,0,0-1.38,2.48,2.59,2.59,0,0,0,.85,2.17,3.21,3.21,0,0,0,2,.66,6.09,6.09,0,0,0,3.53-1.1c1.07-.74,1.63-2.09,1.67-4Z"/><path class="cls-5" d="M398.14,104.78q2.75,2.89,2.74,8.49,0,5.91-2.67,9a8.68,8.68,0,0,1-6.89,3.1,7.29,7.29,0,0,1-4.46-1.33,8.83,8.83,0,0,1-1.9-2.16v11.65h-5.78V102.38h5.6v3.3a9.47,9.47,0,0,1,2-2.3,7.51,7.51,0,0,1,4.67-1.49A8.82,8.82,0,0,1,398.14,104.78Zm-4.48,4.2a4.18,4.18,0,0,0-3.87-2,4.4,4.4,0,0,0-4.41,3,11.4,11.4,0,0,0-.62,4.06q0,3.9,2.09,5.47a4.78,4.78,0,0,0,2.94.93,4.26,4.26,0,0,0,3.76-1.89,8.67,8.67,0,0,0,1.3-5A8.78,8.78,0,0,0,393.66,109Z"/><path class="cls-5" d="M421.07,102.5a6.53,6.53,0,0,1,2.76,2.2,5.9,5.9,0,0,1,1.13,2.58,33.08,33.08,0,0,1,.2,4.32v13.13h-6V111.12a6,6,0,0,0-.61-2.91,3.06,3.06,0,0,0-3-1.57,4.13,4.13,0,0,0-3.49,1.55,7.12,7.12,0,0,0-1.19,4.43v12.11H405V94.61h5.85v10.66a7.17,7.17,0,0,1,2.93-2.72,8.27,8.27,0,0,1,3.5-.77A9.5,9.5,0,0,1,421.07,102.5Z"/><path class="cls-5" d="M431.54,129l.74,0a8.84,8.84,0,0,0,1.64-.06,3,3,0,0,0,1.31-.47,3.19,3.19,0,0,0,.95-1.46,3.43,3.43,0,0,0,.38-1.35l-8.21-23.34h6.5l4.88,16.49,4.61-16.49h6.22l-7.67,22q-2.22,6.36-3.51,7.89c-.86,1-2.59,1.53-5.17,1.53H433c-.31,0-.78,0-1.41-.08Z"/><path class="cls-5" d="M488.51,99.86h-16v6.42H487.2v5.25H472.51v7.77h16.74v5.43H466.34V94.5h22.17Z"/><path class="cls-5" d="M507.07,110.4a5.09,5.09,0,0,0-.85-2.26,3.52,3.52,0,0,0-3.06-1.35,4,4,0,0,0-4.05,2.93,12.28,12.28,0,0,0-.57,4.13,11.27,11.27,0,0,0,.57,4,3.92,3.92,0,0,0,3.95,2.79,3.49,3.49,0,0,0,2.92-1.11,5.6,5.6,0,0,0,1-2.87h6a9.73,9.73,0,0,1-1.93,5c-1.83,2.55-4.55,3.83-8.14,3.83s-6.25-1.07-7.95-3.2a12.9,12.9,0,0,1-2.55-8.29c0-3.84.94-6.82,2.82-9a9.79,9.79,0,0,1,7.76-3.19,11.65,11.65,0,0,1,6.88,1.88q2.69,1.89,3.18,6.67Z"/><path class="cls-5" d="M535.7,122q-2.84,3.5-8.6,3.49T518.51,122a13.87,13.87,0,0,1,0-16.79q2.84-3.55,8.59-3.55t8.6,3.55a13.87,13.87,0,0,1,0,16.79ZM531,118.77a10.46,10.46,0,0,0,0-10.35,5.17,5.17,0,0,0-7.88,0,10.33,10.33,0,0,0,0,10.35,5.17,5.17,0,0,0,7.88,0Z"/><path class="cls-5" d="M547.24,117.6a3.9,3.9,0,0,0,.81,2.21c.72.78,2.07,1.17,4,1.17a6.24,6.24,0,0,0,2.76-.51,1.72,1.72,0,0,0,.19-3,33.1,33.1,0,0,0-6.11-1.76,12.77,12.77,0,0,1-5.37-2.36,5.11,5.11,0,0,1-1.56-4,7,7,0,0,1,2.44-5.32,9.81,9.81,0,0,1,6.85-2.23,12.67,12.67,0,0,1,6.84,1.67c1.76,1.12,2.77,3,3,5.78H555.3a3.49,3.49,0,0,0-.63-1.79,4.05,4.05,0,0,0-3.3-1.19,4.69,4.69,0,0,0-2.72.6,1.71,1.71,0,0,0-.81,1.39,1.52,1.52,0,0,0,.86,1.46,38.66,38.66,0,0,0,6.1,1.62,11.2,11.2,0,0,1,5.24,2.48,5.62,5.62,0,0,1,1.72,4.2,6.79,6.79,0,0,1-2.47,5.43q-2.49,2.1-7.66,2.1t-7.8-2.22a7.24,7.24,0,0,1-2.51-5.67Z"/><path class="cls-5" d="M567,129l.74,0a8.84,8.84,0,0,0,1.64-.06,3,3,0,0,0,1.31-.47,3.27,3.27,0,0,0,1-1.46,3.63,3.63,0,0,0,.38-1.35l-8.22-23.34h6.5l4.88,16.49,4.62-16.49H586l-7.66,22q-2.22,6.36-3.52,7.89t-5.17,1.53h-1.25c-.32,0-.79,0-1.42-.08Z"/><path class="cls-5" d="M594,117.6a3.9,3.9,0,0,0,.8,2.21c.73.78,2.08,1.17,4,1.17a6.19,6.19,0,0,0,2.75-.51,1.72,1.72,0,0,0,.2-3,33.39,33.39,0,0,0-6.11-1.76,12.77,12.77,0,0,1-5.37-2.36,5.11,5.11,0,0,1-1.56-4,7,7,0,0,1,2.43-5.32,9.83,9.83,0,0,1,6.86-2.23,12.63,12.63,0,0,1,6.83,1.67c1.76,1.12,2.77,3,3,5.78H602a3.49,3.49,0,0,0-.64-1.79,4,4,0,0,0-3.29-1.19,4.69,4.69,0,0,0-2.72.6,1.73,1.73,0,0,0-.82,1.39,1.53,1.53,0,0,0,.87,1.46,38.31,38.31,0,0,0,6.1,1.62,11.25,11.25,0,0,1,5.24,2.48,5.65,5.65,0,0,1,1.72,4.2,6.8,6.8,0,0,1-2.48,5.43q-2.47,2.1-7.65,2.1t-7.8-2.22A7.25,7.25,0,0,1,588,117.6Z"/><path class="cls-5" d="M610.49,106.75v-4.17h3.12V96.35h5.78v6.23H623v4.17h-3.63v11.81c0,.92.11,1.49.35,1.71a3.77,3.77,0,0,0,2.13.34h.56l.59,0v4.37l-2.77.1q-4.14.15-5.66-1.44a4.25,4.25,0,0,1-1-3.09V106.75Z"/><path class="cls-5" d="M641.34,102.83a9,9,0,0,1,3.86,3.31,10.92,10.92,0,0,1,1.78,4.62,28.23,28.23,0,0,1,.19,4.44H630.89q.14,3.36,2.34,4.71a5.94,5.94,0,0,0,3.22.84,4.51,4.51,0,0,0,4.45-2.56h6a7.3,7.3,0,0,1-2.17,4q-3,3.26-8.41,3.26a12.2,12.2,0,0,1-7.87-2.75Q625,120,625,113.79q0-5.81,3.08-8.91a10.78,10.78,0,0,1,8-3.1A12.7,12.7,0,0,1,641.34,102.83Zm-8.75,5a6.1,6.1,0,0,0-1.55,3.46h10.07a4.89,4.89,0,0,0-1.56-3.53,5.1,5.1,0,0,0-3.47-1.21A4.65,4.65,0,0,0,632.59,107.88Z"/><path class="cls-5" d="M678,102.46a6.35,6.35,0,0,1,2.6,2,6.46,6.46,0,0,1,1.28,2.87,20.68,20.68,0,0,1,.2,3.3l0,14.09h-6V110.5a4.58,4.58,0,0,0-.41-2.09,2.91,2.91,0,0,0-2.87-1.56,3.35,3.35,0,0,0-3.34,2,6.19,6.19,0,0,0-.47,2.56v13.31h-5.89V111.42a7.55,7.55,0,0,0-.41-2.89,2.86,2.86,0,0,0-2.89-1.62q-2.5,0-3.36,1.62a6.16,6.16,0,0,0-.48,2.75v13.45H650V102.42h5.68v3.26a9.35,9.35,0,0,1,2-2.48,8.14,8.14,0,0,1,8.55-.19,6.62,6.62,0,0,1,1.93,2.69,7.34,7.34,0,0,1,2.85-2.89,8.62,8.62,0,0,1,4-.92A7.85,7.85,0,0,1,678,102.46Z"/></g></svg>