<svg id="Layer_1" data-name="Layer 1" xmlns="http://www.w3.org/2000/svg" viewBox="0 0 800 172"><defs><style>.cls-1{fill:#c3d7ee;}.cls-2{fill:#8bb8e8;}.cls-3{fill:#2774ae;}.cls-4{isolation:isolate;}.cls-5{fill:#003b5c;}</style></defs><rect class="cls-1" width="800" height="172"/><g id="art"><polygon class="cls-2" points="113.4 98.1 111 26.2 94.3 33.5 96.2 91 96.2 91 58 131.9 65.5 149.2 113.4 98.1"/><polyline class="cls-3" points="60.4 0 94.3 33.5 111 26.2 84.4 0"/><polyline class="cls-3" points="0 149.6 65.5 149.2 58 131.9 0 132.3"/></g><g class="cls-4"><path class="cls-5" d="M273.9,38.79h7.33V60a12,12,0,0,0,.84,5.2q1.31,2.91,5.7,2.91t5.68-2.91a12,12,0,0,0,.84-5.2V38.79h7.33V60q0,5.5-1.71,8.58-3.18,5.63-12.14,5.62T275.6,68.6c-1.14-2-1.7-4.91-1.7-8.58Z"/><path class="cls-5" d="M311.86,42.4a14.2,14.2,0,0,1,10.62-4.27q8.63,0,12.61,5.72a12.48,12.48,0,0,1,2.37,6.44h-7.22a9.93,9.93,0,0,0-1.77-3.75,7.11,7.11,0,0,0-5.72-2.25,7,7,0,0,0-6.08,3.18c-1.49,2.12-2.23,5.11-2.23,9s.79,6.77,2.35,8.7a7.38,7.38,0,0,0,6,2.9,6.77,6.77,0,0,0,5.67-2.49,10.94,10.94,0,0,0,1.79-4h7.17a15.55,15.55,0,0,1-4.74,9.18,13.82,13.82,0,0,1-9.78,3.54q-7.37,0-11.59-4.78t-4.22-13.17Q307.06,47.3,311.86,42.4Z"/><path class="cls-5" d="M343.22,38.79h7.22V67.12h17.25v6.21H343.22Z"/><path class="cls-5" d="M382.42,38.79h8.17l12.22,34.54H395l-2.28-7.1H380l-2.34,7.1h-7.55ZM382,60.28h8.84l-4.36-13.6Z"/><path class="cls-5" d="M418.79,38.79H426V67.12h17.25v6.21H418.79Z"/><path class="cls-5" d="M454.43,44.74h-6.77V38.57h6.77Zm-6.77,3h6.77V73.33h-6.77Z"/><path class="cls-5" d="M482.72,50.86a14.66,14.66,0,0,1,2.86,9.37,16.46,16.46,0,0,1-2.82,9.87,10.29,10.29,0,0,1-13,2.65,10.29,10.29,0,0,1-2.5-2.63v3.21h-6.58V38.83h6.68V51.11a9.7,9.7,0,0,1,2.81-2.71,8.3,8.3,0,0,1,4.62-1.18A9.54,9.54,0,0,1,482.72,50.86Zm-5.59,15.56a9.48,9.48,0,0,0,1.45-5.49,12.34,12.34,0,0,0-.71-4.5,4.94,4.94,0,0,0-5-3.37,5,5,0,0,0-5,3.3,12.41,12.41,0,0,0-.71,4.55,9.45,9.45,0,0,0,1.47,5.44,5,5,0,0,0,4.46,2.15A4.62,4.62,0,0,0,477.13,66.42Z"/><path class="cls-5" d="M504.42,47.19l.57,0v6.85c-.42,0-.8-.08-1.13-.1l-.79,0c-2.69,0-4.49.87-5.42,2.62a10.32,10.32,0,0,0-.77,4.55V73.33h-6.73V47.79h6.38v4.45a14.18,14.18,0,0,1,2.69-3.49,7.33,7.33,0,0,1,4.88-1.57Z"/><path class="cls-5" d="M519,57.79a10.65,10.65,0,0,0,2.67-.58,2,2,0,0,0,1.44-1.9A2.24,2.24,0,0,0,522,53.14a6.91,6.91,0,0,0-3.24-.6,4.24,4.24,0,0,0-3.4,1.18,4.83,4.83,0,0,0-1,2.34H508a9.79,9.79,0,0,1,1.88-5.51q2.67-3.37,9.14-3.37a16.28,16.28,0,0,1,7.48,1.66q3.27,1.66,3.27,6.28V66.84c0,.81,0,1.8,0,3a3.7,3.7,0,0,0,.4,1.78,2.3,2.3,0,0,0,1,.78v1h-7.26a7.09,7.09,0,0,1-.43-1.45c-.07-.45-.14-1-.18-1.55a14.08,14.08,0,0,1-3.21,2.56,9.65,9.65,0,0,1-4.9,1.24,8.48,8.48,0,0,1-5.77-2,7.06,7.06,0,0,1-2.27-5.61,7.27,7.27,0,0,1,3.66-6.82,16.25,16.25,0,0,1,5.9-1.65Zm4.09,3.12a7.51,7.51,0,0,1-1.3.65A11.2,11.2,0,0,1,520,62l-1.52.28a9.89,9.89,0,0,0-3.07.92A3,3,0,0,0,513.85,66a3,3,0,0,0,1,2.48,3.74,3.74,0,0,0,2.35.76,6.93,6.93,0,0,0,4-1.27q1.84-1.26,1.92-4.61Z"/><path class="cls-5" d="M549.79,47.19l.57,0v6.85c-.42,0-.79-.08-1.12-.1l-.8,0q-4,0-5.41,2.62a10.16,10.16,0,0,0-.78,4.55V73.33h-6.72V47.79h6.37v4.45a13.92,13.92,0,0,1,2.7-3.49,7.31,7.31,0,0,1,4.87-1.57Z"/><path class="cls-5" d="M555.29,78.23l.84,0a10.39,10.39,0,0,0,1.87-.07,3.35,3.35,0,0,0,1.5-.54A3.5,3.5,0,0,0,560.59,76a3.89,3.89,0,0,0,.44-1.54l-9.39-26.67h7.43l5.58,18.84,5.27-18.84H577l-8.75,25.12q-2.55,7.26-4,9t-5.91,1.75h-1.43q-.55,0-1.62-.09Z"/><path class="cls-5" d="M238.59,97.13a11.43,11.43,0,0,1,5.89,4.39,15.49,15.49,0,0,1,2.46,5.58,26.57,26.57,0,0,1,.66,5.71,22.92,22.92,0,0,1-2.77,11.68q-3.75,6.44-11.59,6.44H218.35V96.38h14.89A18.75,18.75,0,0,1,238.59,97.13Zm-13.23,5.25v22.55H232q5.11,0,7.14-5a17.84,17.84,0,0,0,1.1-6.58q0-5.28-1.65-8.1c-1.11-1.88-3.3-2.83-6.59-2.83Z"/><path class="cls-5" d="M259.34,102.34h-6.77V96.17h6.77Zm-6.77,3h6.77v25.55h-6.77Z"/><path class="cls-5" d="M278.45,105.36a8,8,0,0,1,3.93,3.7v-3.68h6.52v24.24q0,4.95-1.67,7.45-2.85,4.32-11,4.31a15,15,0,0,1-8-1.92,7.09,7.09,0,0,1-3.42-5.74h7.26a3.07,3.07,0,0,0,.92,1.69,5.64,5.64,0,0,0,3.63.91q3.61,0,4.83-2.41a12.24,12.24,0,0,0,.8-5.2v-1.65a8.08,8.08,0,0,1-2.07,2.47,8.3,8.3,0,0,1-5.18,1.52,9.78,9.78,0,0,1-7.86-3.46q-2.94-3.45-2.94-9.36a15.8,15.8,0,0,1,2.83-9.58,9.37,9.37,0,0,1,8-3.87A8.8,8.8,0,0,1,278.45,105.36Zm2.27,18.32c1.08-1.18,1.61-3.06,1.61-5.64a8.65,8.65,0,0,0-1.53-5.53,5,5,0,0,0-4.09-1.9,4.81,4.81,0,0,0-4.83,3.31,11.65,11.65,0,0,0-.7,4.33,9.85,9.85,0,0,0,.74,4,4.88,4.88,0,0,0,4.86,3.24A5.12,5.12,0,0,0,280.72,123.68Z"/><path class="cls-5" d="M302,102.34h-6.78V96.17H302Zm-6.78,3H302v25.55h-6.78Z"/><path class="cls-5" d="M305.84,110.38v-4.76h3.56V98.49H316v7.13h4.15v4.76H316v13.5a3,3,0,0,0,.4,2,4.38,4.38,0,0,0,2.44.39h.64l.67,0v5l-3.16.11c-3.16.11-5.32-.43-6.47-1.64a4.87,4.87,0,0,1-1.13-3.54V110.38Z"/><path class="cls-5" d="M334.57,115.39a10.65,10.65,0,0,0,2.67-.58,2,2,0,0,0,1.44-1.9,2.24,2.24,0,0,0-1.11-2.17,7,7,0,0,0-3.24-.6,4.27,4.27,0,0,0-3.4,1.17,4.91,4.91,0,0,0-.95,2.35h-6.44a9.72,9.72,0,0,1,1.88-5.51q2.65-3.37,9.13-3.37a16.29,16.29,0,0,1,7.49,1.66q3.27,1.66,3.27,6.28v11.72c0,.81,0,1.8.05,3a3.73,3.73,0,0,0,.39,1.78,2.41,2.41,0,0,0,1,.78v1h-7.27a7.71,7.71,0,0,1-.42-1.45c-.08-.45-.14-1-.19-1.55a13.81,13.81,0,0,1-3.2,2.56,9.79,9.79,0,0,1-4.91,1.24,8.47,8.47,0,0,1-5.76-2,7,7,0,0,1-2.27-5.62,7.28,7.28,0,0,1,3.66-6.82,16.41,16.41,0,0,1,5.9-1.64Zm4.08,3.12a7,7,0,0,1-1.29.64,10.49,10.49,0,0,1-1.8.46l-1.52.28a10,10,0,0,0-3.07.92,3,3,0,0,0-1.57,2.83,3,3,0,0,0,1,2.48,3.69,3.69,0,0,0,2.34.76,7,7,0,0,0,4-1.27q1.85-1.26,1.91-4.62Z"/><path class="cls-5" d="M358,130.93h-6.68V96.38H358Z"/><path class="cls-5" d="M381.66,100a14.22,14.22,0,0,1,10.62-4.26q8.63,0,12.61,5.72a12.37,12.37,0,0,1,2.36,6.44H400a9.93,9.93,0,0,0-1.77-3.75,7.12,7.12,0,0,0-5.72-2.25,7,7,0,0,0-6.08,3.18c-1.49,2.12-2.23,5.11-2.23,9s.78,6.77,2.35,8.7a7.38,7.38,0,0,0,6,2.9,6.75,6.75,0,0,0,5.66-2.49,10.77,10.77,0,0,0,1.79-4h7.17a15.47,15.47,0,0,1-4.74,9.18,13.79,13.79,0,0,1-9.77,3.54q-7.38,0-11.59-4.78t-4.22-13.17Q376.86,104.9,381.66,100Z"/><path class="cls-5" d="M433.79,127.81q-3.24,4-9.82,4t-9.82-4a15.83,15.83,0,0,1,0-19.19q3.23-4.05,9.82-4.06t9.82,4.06a15.87,15.87,0,0,1,0,19.19Zm-5.35-3.7a9.64,9.64,0,0,0,1.57-5.92,9.62,9.62,0,0,0-1.57-5.91,5.29,5.29,0,0,0-4.5-2.07,5.35,5.35,0,0,0-4.51,2.07,9.62,9.62,0,0,0-1.58,5.91,9.63,9.63,0,0,0,1.58,5.92,5.34,5.34,0,0,0,4.51,2.09A5.28,5.28,0,0,0,428.44,124.11Z"/><path class="cls-5" d="M448.62,130.93h-6.68V96.38h6.68Z"/><path class="cls-5" d="M462,130.93h-6.68V96.38H462Z"/><path class="cls-5" d="M485.12,105.9a10.49,10.49,0,0,1,4.42,3.78,12.65,12.65,0,0,1,2,5.28,33.09,33.09,0,0,1,.22,5.07H473.18c.11,2.57,1,4.36,2.68,5.39a6.77,6.77,0,0,0,3.68,1,5.66,5.66,0,0,0,3.71-1.17,5.56,5.56,0,0,0,1.37-1.75h6.82a8.33,8.33,0,0,1-2.47,4.61q-3.44,3.74-9.62,3.73a14,14,0,0,1-9-3.14q-3.9-3.15-3.9-10.23,0-6.65,3.52-10.18a12.3,12.3,0,0,1,9.13-3.54A14.49,14.49,0,0,1,485.12,105.9Zm-10,5.77a6.91,6.91,0,0,0-1.78,4h11.51a5.62,5.62,0,0,0-1.78-4,5.86,5.86,0,0,0-4-1.38A5.3,5.3,0,0,0,475.13,111.67Z"/><path class="cls-5" d="M510.45,114.55a6,6,0,0,0-1-2.58,4.06,4.06,0,0,0-3.5-1.55,4.61,4.61,0,0,0-4.63,3.36,13.81,13.81,0,0,0-.66,4.72,12.75,12.75,0,0,0,.66,4.51,4.47,4.47,0,0,0,4.51,3.19,4,4,0,0,0,3.34-1.27,6.34,6.34,0,0,0,1.19-3.28h6.82a11.18,11.18,0,0,1-2.2,5.77q-3.15,4.38-9.32,4.38t-9.08-3.66a14.81,14.81,0,0,1-2.9-9.48q0-6.57,3.21-10.23a11.18,11.18,0,0,1,8.87-3.65,13.35,13.35,0,0,1,7.87,2.15q3.06,2.16,3.62,7.62Z"/><path class="cls-5" d="M519.24,110.38v-4.76h3.56V98.49h6.61v7.13h4.15v4.76h-4.15v13.5c0,1,.13,1.7.4,2a4.38,4.38,0,0,0,2.44.39h.64l.67,0v5l-3.16.11c-3.16.11-5.32-.43-6.47-1.64a4.87,4.87,0,0,1-1.13-3.54V110.38Z"/><path class="cls-5" d="M544.72,102.34h-6.78V96.17h6.78Zm-6.78,3h6.78v25.55h-6.78Z"/><path class="cls-5" d="M572.49,127.81q-3.24,4-9.82,4t-9.82-4a15.83,15.83,0,0,1,0-19.19q3.23-4.05,9.82-4.06t9.82,4.06a15.87,15.87,0,0,1,0,19.19Zm-5.34-3.7a9.7,9.7,0,0,0,1.57-5.92,9.69,9.69,0,0,0-1.57-5.91,5.95,5.95,0,0,0-9,0,9.62,9.62,0,0,0-1.58,5.91,9.63,9.63,0,0,0,1.58,5.92,5.91,5.91,0,0,0,9,0Z"/><path class="cls-5" d="M601.11,106.85c1.67,1.38,2.5,3.68,2.5,6.88v17.2h-6.84V115.39a7.24,7.24,0,0,0-.53-3.09,3.78,3.78,0,0,0-3.73-2,4.62,4.62,0,0,0-4.63,2.88,10.09,10.09,0,0,0-.65,3.89v13.83h-6.68v-25.5H587v3.73a11.58,11.58,0,0,1,2.43-2.84,8.4,8.4,0,0,1,5.2-1.54A9.84,9.84,0,0,1,601.11,106.85Z"/><path class="cls-5" d="M615,122.78a4.54,4.54,0,0,0,.92,2.53c.83.89,2.37,1.33,4.62,1.33a7,7,0,0,0,3.14-.58,2,2,0,0,0,.23-3.47q-.95-.59-7-2c-2.9-.72-4.95-1.61-6.13-2.69a5.86,5.86,0,0,1-1.79-4.6,8,8,0,0,1,2.79-6.08q2.78-2.53,7.83-2.54a14.32,14.32,0,0,1,7.81,1.91q3,1.91,3.47,6.6h-6.68a4,4,0,0,0-.73-2,4.58,4.58,0,0,0-3.76-1.36,5.38,5.38,0,0,0-3.12.68,1.94,1.94,0,0,0-.93,1.59,1.75,1.75,0,0,0,1,1.67,44.52,44.52,0,0,0,7,1.85,12.79,12.79,0,0,1,6,2.83,6.46,6.46,0,0,1,2,4.81,7.76,7.76,0,0,1-2.83,6.2c-1.89,1.6-4.8,2.4-8.75,2.4s-7-.85-8.91-2.54a8.27,8.27,0,0,1-2.88-6.48Z"/></g></svg>