<svg id="Layer_1" data-name="Layer 1" xmlns="http://www.w3.org/2000/svg" viewBox="0 0 800 172"><defs><style>.cls-1{fill:#c3d7ee;}.cls-2{fill:#8bb8e8;}.cls-3{fill:#2774ae;}.cls-4{isolation:isolate;}.cls-5{fill:#003b5c;}</style></defs><rect class="cls-1" width="800" height="172"/><g id="art"><polygon class="cls-2" points="113.4 98.1 111 26.2 94.3 33.5 96.2 91 96.2 91 58 131.9 65.5 149.2 113.4 98.1"/><polyline class="cls-3" points="60.4 0 94.3 33.5 111 26.2 84.4 0"/><polyline class="cls-3" points="0 149.6 65.5 149.2 58 131.9 0 132.3"/></g><g class="cls-4"><path class="cls-5" d="M249.14,74.33h-6.27V44.1h6.27Z"/><path class="cls-5" d="M272.6,53.26c1.46,1.21,2.2,3.22,2.2,6v15h-6V60.74a6.28,6.28,0,0,0-.47-2.71,3.29,3.29,0,0,0-3.26-1.72A4,4,0,0,0,261,58.83a8.71,8.71,0,0,0-.57,3.4v12.1h-5.84V52h5.66v3.26a9.73,9.73,0,0,1,2.12-2.48A7.38,7.38,0,0,1,267,51.45,8.57,8.57,0,0,1,272.6,53.26Z"/><path class="cls-5" d="M277.93,56.35V52.18h3.12V46h5.78v6.23h3.63v4.17h-3.63V68.16a2.65,2.65,0,0,0,.35,1.71,3.84,3.84,0,0,0,2.14.34h.56l.58,0v4.37l-2.76.1c-2.77.1-4.65-.38-5.66-1.44a4.25,4.25,0,0,1-1-3.09V56.35Z"/><path class="cls-5" d="M308.78,52.43a9.12,9.12,0,0,1,3.87,3.31,11.05,11.05,0,0,1,1.78,4.62,29.52,29.52,0,0,1,.19,4.44H298.34q.14,3.36,2.34,4.71a5.92,5.92,0,0,0,3.22.84,5,5,0,0,0,3.24-1,4.84,4.84,0,0,0,1.21-1.54h6a7.22,7.22,0,0,1-2.16,4c-2,2.17-4.81,3.26-8.41,3.26a12.22,12.22,0,0,1-7.88-2.75q-3.41-2.75-3.41-9,0-5.8,3.08-8.91a10.81,10.81,0,0,1,8-3.1A12.69,12.69,0,0,1,308.78,52.43Zm-8.74,5a6,6,0,0,0-1.56,3.46h10.07A4.85,4.85,0,0,0,307,57.41a5.11,5.11,0,0,0-3.47-1.21A4.65,4.65,0,0,0,300,57.48Z"/><path class="cls-5" d="M330,51.46l.51,0v6c-.37,0-.7-.06-1-.08l-.7,0q-3.53,0-4.73,2.3a8.81,8.81,0,0,0-.68,4V74.33h-5.89V52h5.58v3.9a12.21,12.21,0,0,1,2.36-3.06,6.4,6.4,0,0,1,4.27-1.37Z"/><path class="cls-5" d="M352,53.26q2.19,1.82,2.19,6v15h-6V60.74a6.13,6.13,0,0,0-.47-2.71,3.27,3.27,0,0,0-3.25-1.72,4,4,0,0,0-4.05,2.52,8.71,8.71,0,0,0-.57,3.4v12.1H334V52h5.66v3.26a9.74,9.74,0,0,1,2.13-2.48,7.34,7.34,0,0,1,4.55-1.35A8.59,8.59,0,0,1,352,53.26Z"/><path class="cls-5" d="M368.43,60.74a9.06,9.06,0,0,0,2.33-.52A1.75,1.75,0,0,0,372,58.56a2,2,0,0,0-1-1.9,6.25,6.25,0,0,0-2.84-.52,3.7,3.7,0,0,0-3,1,4.09,4.09,0,0,0-.83,2h-5.64a8.55,8.55,0,0,1,1.64-4.82q2.32-3,8-2.95A14.21,14.21,0,0,1,375,52.9q2.87,1.45,2.87,5.5V68.65c0,.71,0,1.57,0,2.59a3.22,3.22,0,0,0,.35,1.55,2.07,2.07,0,0,0,.86.68v.86h-6.36a6.37,6.37,0,0,1-.37-1.27c-.07-.4-.12-.85-.16-1.35a12,12,0,0,1-2.81,2.23A8.4,8.4,0,0,1,365.09,75a7.43,7.43,0,0,1-5-1.73,6.18,6.18,0,0,1-2-4.92,6.35,6.35,0,0,1,3.2-6A14.33,14.33,0,0,1,366.42,61ZM372,63.46a6.31,6.31,0,0,1-1.13.57,10.6,10.6,0,0,1-1.57.4l-1.33.24a9,9,0,0,0-2.69.8A2.68,2.68,0,0,0,363.9,68a2.59,2.59,0,0,0,.85,2.17,3.21,3.21,0,0,0,2.05.66,6.11,6.11,0,0,0,3.53-1.1c1.07-.74,1.63-2.09,1.67-4Z"/><path class="cls-5" d="M380.64,56.35V52.18h3.11V46h5.79v6.23h3.63v4.17h-3.63V68.16c0,.92.11,1.49.35,1.71a3.77,3.77,0,0,0,2.13.34h.56l.59,0v4.37l-2.77.1q-4.14.15-5.66-1.44a4.25,4.25,0,0,1-1-3.09V56.35Z"/><path class="cls-5" d="M402.93,49.31H397V43.92h5.93ZM397,52h5.93V74.33H397Z"/><path class="cls-5" d="M427.23,71.6q-2.84,3.5-8.59,3.49T410,71.6a13.87,13.87,0,0,1,0-16.79q2.83-3.56,8.6-3.55t8.59,3.55a13.87,13.87,0,0,1,0,16.79Zm-4.68-3.23a8.47,8.47,0,0,0,1.38-5.18A8.38,8.38,0,0,0,422.55,58a4.62,4.62,0,0,0-3.93-1.82A4.67,4.67,0,0,0,414.67,58a8.38,8.38,0,0,0-1.38,5.17,8.47,8.47,0,0,0,1.38,5.18,4.67,4.67,0,0,0,3.95,1.82A4.62,4.62,0,0,0,422.55,68.37Z"/><path class="cls-5" d="M452.27,53.26q2.19,1.82,2.19,6v15h-6V60.74A6.28,6.28,0,0,0,448,58a3.29,3.29,0,0,0-3.26-1.72,4,4,0,0,0-4.05,2.52,8.71,8.71,0,0,0-.57,3.4v12.1h-5.84V52H440v3.26a9.54,9.54,0,0,1,2.12-2.48,7.38,7.38,0,0,1,4.55-1.35A8.57,8.57,0,0,1,452.27,53.26Z"/><path class="cls-5" d="M468.75,60.74a9.16,9.16,0,0,0,2.34-.52,1.75,1.75,0,0,0,1.26-1.66,2,2,0,0,0-1-1.9,6.22,6.22,0,0,0-2.84-.52,3.7,3.7,0,0,0-3,1,4.28,4.28,0,0,0-.83,2H459.1a8.49,8.49,0,0,1,1.65-4.82q2.33-3,8-2.95a14.26,14.26,0,0,1,6.55,1.45q2.86,1.45,2.86,5.5V68.65c0,.71,0,1.57,0,2.59a3.22,3.22,0,0,0,.35,1.55,2.07,2.07,0,0,0,.86.68v.86H473a6.31,6.31,0,0,1-.36-1.27c-.07-.4-.13-.85-.17-1.35a12,12,0,0,1-2.8,2.23A8.45,8.45,0,0,1,465.42,75a7.44,7.44,0,0,1-5.05-1.73,6.18,6.18,0,0,1-2-4.92,6.37,6.37,0,0,1,3.2-6A14.39,14.39,0,0,1,466.75,61Zm3.58,2.72a6.39,6.39,0,0,1-1.14.57,10.6,10.6,0,0,1-1.57.4l-1.33.24a8.89,8.89,0,0,0-2.68.8A2.68,2.68,0,0,0,464.23,68a2.62,2.62,0,0,0,.84,2.17,3.23,3.23,0,0,0,2.05.66,6.07,6.07,0,0,0,3.53-1.1c1.08-.74,1.64-2.09,1.68-4Z"/><path class="cls-5" d="M489.23,74.33h-5.85V44.1h5.85Z"/><path class="cls-5" d="M524.78,44.76a10,10,0,0,1,5.15,3.83,13.55,13.55,0,0,1,2.16,4.89,23.53,23.53,0,0,1,.57,5,20.12,20.12,0,0,1-2.42,10.21,10.93,10.93,0,0,1-10.14,5.64h-13V44.1h13A15.94,15.94,0,0,1,524.78,44.76ZM513.2,49.35V69.08H519q4.49,0,6.25-4.41a15.58,15.58,0,0,0,1-5.76,14.13,14.13,0,0,0-1.45-7.09c-1-1.64-2.88-2.47-5.76-2.47Z"/><path class="cls-5" d="M542.94,49.31H537V43.92h5.93ZM537,52h5.93V74.33H537Z"/><path class="cls-5" d="M559.65,52a7,7,0,0,1,3.44,3.24V52h5.71v21.2c0,2.89-.49,5.06-1.46,6.53q-2.51,3.77-9.6,3.77a13.06,13.06,0,0,1-7-1.68,6.22,6.22,0,0,1-3-5h6.36a2.65,2.65,0,0,0,.8,1.48,5,5,0,0,0,3.18.8c2.11,0,3.51-.71,4.23-2.11a10.84,10.84,0,0,0,.69-4.56V71a7.11,7.11,0,0,1-1.8,2.15,7.24,7.24,0,0,1-4.53,1.33,8.54,8.54,0,0,1-6.88-3,12.22,12.22,0,0,1-2.58-8.19,13.82,13.82,0,0,1,2.48-8.38,8.18,8.18,0,0,1,7-3.39A7.69,7.69,0,0,1,559.65,52Zm2,16q1.41-1.55,1.41-4.93a7.59,7.59,0,0,0-1.33-4.84,4.4,4.4,0,0,0-3.59-1.66,4.22,4.22,0,0,0-4.22,2.89,10.28,10.28,0,0,0-.62,3.8A8.58,8.58,0,0,0,554,66.7a4.25,4.25,0,0,0,4.24,2.83A4.45,4.45,0,0,0,561.64,68Z"/><path class="cls-5" d="M580.26,49.31h-5.93V43.92h5.93ZM574.33,52h5.93V74.33h-5.93Z"/><path class="cls-5" d="M583.62,56.35V52.18h3.12V46h5.78v6.23h3.63v4.17h-3.63V68.16a2.65,2.65,0,0,0,.35,1.71,3.8,3.8,0,0,0,2.13.34h.57l.58,0v4.37l-2.77.1c-2.76.1-4.64-.38-5.66-1.44a4.29,4.29,0,0,1-1-3.09V56.35Z"/><path class="cls-5" d="M608.76,60.74a9,9,0,0,0,2.33-.52,1.75,1.75,0,0,0,1.26-1.66,2,2,0,0,0-1-1.9,6.25,6.25,0,0,0-2.84-.52,3.7,3.7,0,0,0-3,1,4.09,4.09,0,0,0-.83,2h-5.64a8.55,8.55,0,0,1,1.64-4.82c1.56-2,4.22-2.95,8-2.95a14.28,14.28,0,0,1,6.55,1.45c1.9,1,2.86,2.8,2.86,5.5V68.65c0,.71,0,1.57,0,2.59a3.22,3.22,0,0,0,.35,1.55,2.07,2.07,0,0,0,.86.68v.86h-6.36a6.37,6.37,0,0,1-.37-1.27c-.07-.4-.12-.85-.16-1.35a12,12,0,0,1-2.81,2.23A8.4,8.4,0,0,1,605.42,75a7.43,7.43,0,0,1-5-1.73,6.18,6.18,0,0,1-2-4.92,6.37,6.37,0,0,1,3.2-6A14.33,14.33,0,0,1,606.76,61Zm3.57,2.72a6.31,6.31,0,0,1-1.13.57,10.6,10.6,0,0,1-1.57.4l-1.33.24a9,9,0,0,0-2.69.8A2.68,2.68,0,0,0,604.23,68a2.59,2.59,0,0,0,.85,2.17,3.21,3.21,0,0,0,2,.66,6.09,6.09,0,0,0,3.53-1.1c1.07-.74,1.63-2.09,1.67-4Z"/><path class="cls-5" d="M629.23,74.33h-5.84V44.1h5.84Z"/><path class="cls-5" d="M220.17,99.86h-16v6.42h14.68v5.25H204.18v7.77h16.73v5.43H198V94.5h22.17Z"/><path class="cls-5" d="M244.16,104.78c1.82,1.93,2.74,4.76,2.74,8.49,0,3.94-.9,6.94-2.68,9a8.65,8.65,0,0,1-6.88,3.1,7.27,7.27,0,0,1-4.46-1.33,8.63,8.63,0,0,1-1.9-2.16v11.65H225.2V102.38h5.6v3.3a9.27,9.27,0,0,1,2-2.3,7.51,7.51,0,0,1,4.66-1.49A8.83,8.83,0,0,1,244.16,104.78Zm-4.49,4.2a4.16,4.16,0,0,0-3.86-2,4.4,4.4,0,0,0-4.41,3,11.18,11.18,0,0,0-.62,4.06c0,2.6.69,4.42,2.09,5.47a4.78,4.78,0,0,0,2.94.93,4.27,4.27,0,0,0,3.76-1.89,9.84,9.84,0,0,0,.1-9.6Z"/><path class="cls-5" d="M267.08,102.5a6.5,6.5,0,0,1,2.77,2.2,5.76,5.76,0,0,1,1.12,2.58,31,31,0,0,1,.21,4.32v13.13h-6V111.12a6.08,6.08,0,0,0-.61-2.91,3.08,3.08,0,0,0-3-1.57,4.15,4.15,0,0,0-3.49,1.55,7.19,7.19,0,0,0-1.19,4.43v12.11h-5.84V94.61h5.84v10.66a7.23,7.23,0,0,1,2.93-2.72,8.3,8.3,0,0,1,3.5-.77A9.43,9.43,0,0,1,267.08,102.5Z"/><path class="cls-5" d="M291.24,102.83a9,9,0,0,1,3.86,3.31,10.92,10.92,0,0,1,1.78,4.62,29.25,29.25,0,0,1,.2,4.44H280.79q.15,3.36,2.34,4.71a6,6,0,0,0,3.22.84,5,5,0,0,0,3.25-1,4.83,4.83,0,0,0,1.2-1.54h6a7.3,7.3,0,0,1-2.17,4q-3,3.26-8.41,3.26a12.2,12.2,0,0,1-7.87-2.75q-3.4-2.74-3.41-8.95,0-5.81,3.08-8.91a10.8,10.8,0,0,1,8-3.1A12.7,12.7,0,0,1,291.24,102.83Zm-8.74,5a6,6,0,0,0-1.56,3.46H291a4.89,4.89,0,0,0-1.56-3.53A5.1,5.1,0,0,0,286,106.6,4.61,4.61,0,0,0,282.5,107.88Z"/><path class="cls-5" d="M327.92,102.46a6.53,6.53,0,0,1,3.88,4.88,20.68,20.68,0,0,1,.2,3.3l0,14.09h-6V110.5a4.58,4.58,0,0,0-.41-2.09,2.91,2.91,0,0,0-2.87-1.56,3.35,3.35,0,0,0-3.34,2,6.36,6.36,0,0,0-.47,2.56v13.31H313V111.42a7.36,7.36,0,0,0-.41-2.89,2.86,2.86,0,0,0-2.89-1.62q-2.51,0-3.36,1.62a6.18,6.18,0,0,0-.47,2.75v13.45h-5.93V102.42h5.68v3.26a9.35,9.35,0,0,1,2.05-2.48,8.14,8.14,0,0,1,8.55-.19,6.62,6.62,0,0,1,1.93,2.69,7.47,7.47,0,0,1,2.85-2.89,8.62,8.62,0,0,1,4-.92A7.85,7.85,0,0,1,327.92,102.46Z"/><path class="cls-5" d="M351.94,102.83a9,9,0,0,1,3.86,3.31,11.07,11.07,0,0,1,1.79,4.62,29.52,29.52,0,0,1,.19,4.44H341.5q.13,3.36,2.33,4.71a6,6,0,0,0,3.23.84,5,5,0,0,0,3.24-1,4.84,4.84,0,0,0,1.21-1.54h6a7.28,7.28,0,0,1-2.16,4q-3,3.26-8.41,3.26a12.22,12.22,0,0,1-7.88-2.75q-3.4-2.74-3.41-8.95,0-5.81,3.08-8.91a10.8,10.8,0,0,1,8-3.1A12.7,12.7,0,0,1,351.94,102.83Zm-8.74,5a6,6,0,0,0-1.56,3.46h10.07a4.85,4.85,0,0,0-1.56-3.53,5.07,5.07,0,0,0-3.46-1.21A4.64,4.64,0,0,0,343.2,107.88Z"/><path class="cls-5" d="M373.15,101.86l.5,0v6c-.36,0-.69-.07-1-.09l-.7,0q-3.53,0-4.73,2.3a8.81,8.81,0,0,0-.68,4v10.68h-5.89V102.38h5.58v3.9a12.4,12.4,0,0,1,2.36-3.06,6.38,6.38,0,0,1,4.27-1.37Z"/><path class="cls-5" d="M385.93,111.14a9.16,9.16,0,0,0,2.34-.52,1.75,1.75,0,0,0,1.26-1.66,2,2,0,0,0-1-1.9,6.22,6.22,0,0,0-2.84-.52,3.7,3.7,0,0,0-3,1,4.18,4.18,0,0,0-.83,2.05h-5.64a8.49,8.49,0,0,1,1.65-4.82q2.32-3,8-3a14.26,14.26,0,0,1,6.55,1.45q2.86,1.45,2.86,5.5v10.25c0,.71,0,1.57,0,2.59a3.22,3.22,0,0,0,.35,1.55,2.07,2.07,0,0,0,.86.68v.86h-6.36a6.31,6.31,0,0,1-.36-1.27c-.07-.4-.13-.85-.17-1.35a12.17,12.17,0,0,1-2.8,2.23,8.46,8.46,0,0,1-4.3,1.09,7.43,7.43,0,0,1-5-1.73,6.17,6.17,0,0,1-2-4.91,6.37,6.37,0,0,1,3.2-6,14.39,14.39,0,0,1,5.17-1.44Zm3.58,2.72a6.74,6.74,0,0,1-1.14.57,10.6,10.6,0,0,1-1.57.4l-1.33.24a8.89,8.89,0,0,0-2.68.8,2.68,2.68,0,0,0-1.38,2.48,2.62,2.62,0,0,0,.84,2.17,3.23,3.23,0,0,0,2.05.66,6.09,6.09,0,0,0,3.53-1.1c1.08-.74,1.63-2.09,1.68-4Z"/><path class="cls-5" d="M432.87,111.65c-1.77,1.47-4.29,2.21-7.58,2.21H419v10.87h-6.28V94.5h13a10.48,10.48,0,0,1,7.16,2.34q2.67,2.34,2.67,7.24Q435.53,109.44,432.87,111.65Zm-4.82-10.89a5.09,5.09,0,0,0-3.36-1H419v8.9h5.69a4.85,4.85,0,0,0,3.36-1.08,4.46,4.46,0,0,0,1.2-3.45A4.16,4.16,0,0,0,428.05,100.76Z"/><path class="cls-5" d="M452.54,101.86l.5,0v6c-.37,0-.7-.07-1-.09l-.7,0q-3.53,0-4.74,2.3a9,9,0,0,0-.68,4v10.68h-5.88V102.38h5.58v3.9a12.4,12.4,0,0,1,2.36-3.06,6.38,6.38,0,0,1,4.26-1.37Z"/><path class="cls-5" d="M475.11,122q-2.83,3.5-8.6,3.49T457.92,122a13.87,13.87,0,0,1,0-16.79q2.83-3.55,8.59-3.55t8.6,3.55a13.87,13.87,0,0,1,0,16.79Zm-4.68-3.23a10.46,10.46,0,0,0,0-10.35,5.19,5.19,0,0,0-7.89,0,10.39,10.39,0,0,0,0,10.35,5.19,5.19,0,0,0,7.89,0Z"/><path class="cls-5" d="M479.58,129l.69,0h.37a1.84,1.84,0,0,0,1.31-.42,2.27,2.27,0,0,0,.44-1.63V102.48h5.84v24.65a7.79,7.79,0,0,1-1.33,5q-1.33,1.62-5.23,1.62l-.79,0-1.3-.05Zm8.65-29.31h-5.84V94.32h5.84Z"/><path class="cls-5" d="M508.36,102.83a9.16,9.16,0,0,1,3.86,3.31,11.05,11.05,0,0,1,1.78,4.62,28.23,28.23,0,0,1,.19,4.44H497.91q.13,3.36,2.34,4.71a5.92,5.92,0,0,0,3.22.84,4.51,4.51,0,0,0,4.45-2.56h6a7.3,7.3,0,0,1-2.17,4c-2,2.17-4.81,3.26-8.41,3.26a12.18,12.18,0,0,1-7.87-2.75Q492,120,492,113.79q0-5.81,3.07-8.91a10.82,10.82,0,0,1,8-3.1A12.73,12.73,0,0,1,508.36,102.83Zm-8.75,5a6.18,6.18,0,0,0-1.56,3.46h10.07a4.85,4.85,0,0,0-1.55-3.53,5.11,5.11,0,0,0-3.47-1.21A4.65,4.65,0,0,0,499.61,107.88Z"/><path class="cls-5" d="M530.52,110.4a5.2,5.2,0,0,0-.84-2.26,3.55,3.55,0,0,0-3.07-1.35,4,4,0,0,0-4.05,2.93,12.28,12.28,0,0,0-.57,4.13,11.27,11.27,0,0,0,.57,4,3.92,3.92,0,0,0,4,2.79,3.49,3.49,0,0,0,2.92-1.11,5.6,5.6,0,0,0,1.05-2.87h6a9.82,9.82,0,0,1-1.93,5q-2.76,3.82-8.15,3.83t-8-3.2a12.89,12.89,0,0,1-2.54-8.29c0-3.84.93-6.82,2.81-9a9.79,9.79,0,0,1,7.76-3.19,11.65,11.65,0,0,1,6.88,1.88q2.68,1.89,3.18,6.67Z"/><path class="cls-5" d="M538.21,106.75v-4.17h3.12V96.35h5.78v6.23h3.63v4.17h-3.63v11.81a2.65,2.65,0,0,0,.35,1.71,3.77,3.77,0,0,0,2.13.34h.56l.59,0v4.37L548,125q-4.14.15-5.66-1.44a4.25,4.25,0,0,1-1-3.09V106.75Z"/><path class="cls-5" d="M567.66,102.13A44.11,44.11,0,0,1,572.4,94h4.4l-1.25,2.3a34.36,34.36,0,0,0-3.59,9.92,40,40,0,0,0-.65,7.43,35.22,35.22,0,0,0,1.82,11.54,52,52,0,0,0,3.78,8h-4.33l-1.46-2a26.86,26.86,0,0,1-3-5.37,30.61,30.61,0,0,1-2.85-12.55A27.83,27.83,0,0,1,567.66,102.13Z"/><path class="cls-5" d="M586.38,124.73h-6.27V94.5h6.27Z"/><path class="cls-5" d="M610,95.16A10,10,0,0,1,615.15,99a13.43,13.43,0,0,1,2.16,4.88,23.53,23.53,0,0,1,.57,5,20.12,20.12,0,0,1-2.42,10.21,10.93,10.93,0,0,1-10.14,5.64h-13V94.5h13A16,16,0,0,1,610,95.16Zm-11.58,4.59v19.73h5.83q4.49,0,6.25-4.41a15.58,15.58,0,0,0,1-5.76,14.13,14.13,0,0,0-1.45-7.09c-1-1.64-2.88-2.47-5.76-2.47Z"/><path class="cls-5" d="M645,99.86H629v6.42h14.68v5.25H629v7.77h16.73v5.43H622.8V94.5H645Z"/><path class="cls-5" d="M670.93,111.65q-2.65,2.2-7.58,2.21h-6.3v10.87h-6.27V94.5h13a10.47,10.47,0,0,1,7.16,2.34q2.67,2.34,2.67,7.24Q673.58,109.44,670.93,111.65Zm-4.82-10.89a5.11,5.11,0,0,0-3.37-1h-5.69v8.9h5.69a4.87,4.87,0,0,0,3.37-1.08,4.46,4.46,0,0,0,1.2-3.45A4.16,4.16,0,0,0,666.11,100.76Z"/><path class="cls-5" d="M685.11,102.13a27.83,27.83,0,0,1,2.4,11.16,30.61,30.61,0,0,1-2.85,12.55,26.37,26.37,0,0,1-3,5.37l-1.45,2h-4.32a52.49,52.49,0,0,0,3.76-8,35.22,35.22,0,0,0,1.82-11.54,39.12,39.12,0,0,0-.66-7.43,34.61,34.61,0,0,0-3.57-9.92L676,94h4.4A44,44,0,0,1,685.11,102.13Z"/></g></svg>