<svg id="Layer_1" data-name="Layer 1" xmlns="http://www.w3.org/2000/svg" viewBox="0 0 800 172"><defs><style>.cls-1{fill:#c3d7ee;}.cls-2{fill:#8bb8e8;}.cls-3{fill:#2774ae;}.cls-4{isolation:isolate;}.cls-5{fill:#003b5c;}</style></defs><rect class="cls-1" width="800" height="172"/><g id="art"><polygon class="cls-2" points="113.4 98.1 111 26.2 94.3 33.5 96.2 91 96.2 91 58 131.9 65.5 149.2 113.4 98.1"/><polyline class="cls-3" points="60.4 0 94.3 33.5 111 26.2 84.4 0"/><polyline class="cls-3" points="0 149.6 65.5 149.2 58 131.9 0 132.3"/></g><g class="cls-4"><g class="cls-4"><path class="cls-5" d="M287.76,68.26q-3.92,4-11.32,4t-11.33-4q-5.25-5-5.25-14.25,0-9.49,5.25-14.25,3.92-4,11.33-4t11.32,4Q293,44.52,293,54,293,63.31,287.76,68.26ZM283.24,63q2.52-3.16,2.52-9t-2.52-9a8.25,8.25,0,0,0-6.8-3.17A8.35,8.35,0,0,0,269.59,45Q267,48.18,267,54t2.55,9a8.35,8.35,0,0,0,6.85,3.17A8.25,8.25,0,0,0,283.24,63Z"/><path class="cls-5" d="M319.43,48.53q3.13,3.3,3.13,9.7,0,6.75-3.05,10.29a9.92,9.92,0,0,1-7.87,3.54,8.3,8.3,0,0,1-5.1-1.52,10,10,0,0,1-2.17-2.47V81.39h-6.61V45.79h6.4v3.77a10.84,10.84,0,0,1,2.31-2.63,8.54,8.54,0,0,1,5.33-1.71A10.07,10.07,0,0,1,319.43,48.53Zm-5.12,4.8a4.77,4.77,0,0,0-4.42-2.27,5,5,0,0,0-5,3.44,12.83,12.83,0,0,0-.71,4.64c0,3,.79,5.06,2.39,6.26a5.43,5.43,0,0,0,3.36,1.06,4.89,4.89,0,0,0,4.3-2.16,10,10,0,0,0,1.48-5.74A10,10,0,0,0,314.31,53.33Z"/><path class="cls-5" d="M343.92,46.3a10.41,10.41,0,0,1,4.41,3.78,12.53,12.53,0,0,1,2,5.28,33.09,33.09,0,0,1,.22,5.07H332c.11,2.57,1,4.36,2.67,5.39a6.81,6.81,0,0,0,3.69,1,5.2,5.2,0,0,0,5.08-2.93h6.82a8.35,8.35,0,0,1-2.48,4.61q-3.42,3.73-9.61,3.73a14,14,0,0,1-9-3.14q-3.9-3.15-3.89-10.23,0-6.64,3.51-10.18a12.34,12.34,0,0,1,9.14-3.54A14.53,14.53,0,0,1,343.92,46.3Zm-10,5.77a6.91,6.91,0,0,0-1.78,4h11.5a5.55,5.55,0,0,0-1.78-4,5.83,5.83,0,0,0-4-1.38A5.29,5.29,0,0,0,333.93,52.07Z"/><path class="cls-5" d="M374.57,47.25c1.67,1.38,2.51,3.68,2.51,6.88v17.2h-6.85V55.79a7.24,7.24,0,0,0-.53-3.09,3.78,3.78,0,0,0-3.73-2,4.62,4.62,0,0,0-4.63,2.88,10.09,10.09,0,0,0-.65,3.89V71.33H354V45.83h6.47v3.73a11.58,11.58,0,0,1,2.43-2.84,8.4,8.4,0,0,1,5.2-1.54A9.84,9.84,0,0,1,374.57,47.25Z"/><path class="cls-5" d="M405.28,36.79h8.17l12.22,34.54h-7.82l-2.28-7.1H402.84l-2.34,7.1H393Zm-.47,21.49h8.84l-4.36-13.6Z"/><path class="cls-5" d="M444.81,55a6,6,0,0,0-1-2.58,4.06,4.06,0,0,0-3.5-1.55,4.61,4.61,0,0,0-4.63,3.36,13.81,13.81,0,0,0-.66,4.72,12.75,12.75,0,0,0,.66,4.51,4.46,4.46,0,0,0,4.51,3.19,4,4,0,0,0,3.33-1.27,6.26,6.26,0,0,0,1.2-3.28h6.82a11.18,11.18,0,0,1-2.2,5.77q-3.15,4.38-9.32,4.38T431,68.54a14.73,14.73,0,0,1-2.9-9.48q0-6.57,3.21-10.23a11.18,11.18,0,0,1,8.87-3.65A13.35,13.35,0,0,1,448,47.33q3.06,2.16,3.62,7.62Z"/><path class="cls-5" d="M471.51,55a6,6,0,0,0-1-2.58,4,4,0,0,0-3.5-1.55,4.62,4.62,0,0,0-4.63,3.36,13.84,13.84,0,0,0-.65,4.72,12.78,12.78,0,0,0,.65,4.51,4.46,4.46,0,0,0,4.51,3.19,4,4,0,0,0,3.34-1.27,6.26,6.26,0,0,0,1.2-3.28h6.82a11.2,11.2,0,0,1-2.21,5.77q-3.13,4.38-9.31,4.38t-9.08-3.66a14.73,14.73,0,0,1-2.91-9.48q0-6.57,3.21-10.23a11.19,11.19,0,0,1,8.87-3.65,13.33,13.33,0,0,1,7.87,2.15c2,1.44,3.25,4,3.63,7.62Z"/><path class="cls-5" d="M499.57,46.3A10.41,10.41,0,0,1,504,50.08a12.53,12.53,0,0,1,2,5.28,33.09,33.09,0,0,1,.22,5.07H487.63c.1,2.57,1,4.36,2.67,5.39a6.8,6.8,0,0,0,3.68,1,5.65,5.65,0,0,0,3.71-1.18,5.58,5.58,0,0,0,1.38-1.75h6.82a8.35,8.35,0,0,1-2.48,4.61Q500,72.2,493.8,72.2a14,14,0,0,1-9-3.14q-3.9-3.15-3.9-10.23,0-6.64,3.52-10.18a12.33,12.33,0,0,1,9.14-3.54A14.53,14.53,0,0,1,499.57,46.3Zm-10,5.77a7,7,0,0,0-1.78,4H499.3a5.55,5.55,0,0,0-1.78-4,5.83,5.83,0,0,0-4-1.38A5.33,5.33,0,0,0,489.57,52.07Z"/><path class="cls-5" d="M514.79,63.18a4.54,4.54,0,0,0,.92,2.53c.83.89,2.37,1.33,4.62,1.33a7,7,0,0,0,3.14-.58A2,2,0,0,0,523.7,63q-.94-.59-7-2c-2.9-.72-5-1.61-6.13-2.69a5.86,5.86,0,0,1-1.79-4.6,8,8,0,0,1,2.79-6.08q2.77-2.54,7.83-2.54A14.41,14.41,0,0,1,527.22,47q3,1.91,3.47,6.6H524a4,4,0,0,0-.73-2,4.58,4.58,0,0,0-3.76-1.36,5.38,5.38,0,0,0-3.12.68,1.94,1.94,0,0,0-.93,1.59,1.75,1.75,0,0,0,1,1.67,44.52,44.52,0,0,0,7,1.85,12.79,12.79,0,0,1,6,2.83,6.46,6.46,0,0,1,2,4.81,7.75,7.75,0,0,1-2.83,6.2c-1.89,1.6-4.8,2.4-8.75,2.4s-7-.85-8.91-2.54A8.27,8.27,0,0,1,508,63.18Z"/><path class="cls-5" d="M541.49,63.18a4.46,4.46,0,0,0,.92,2.53c.83.89,2.37,1.33,4.61,1.33a7.11,7.11,0,0,0,3.15-.58,2,2,0,0,0,.22-3.47q-.93-.59-7-2c-2.91-.72-4.95-1.61-6.14-2.69a5.86,5.86,0,0,1-1.78-4.6,8,8,0,0,1,2.78-6.08q2.79-2.54,7.84-2.54A14.46,14.46,0,0,1,553.92,47q3,1.91,3.46,6.6H550.7a3.93,3.93,0,0,0-.73-2,4.57,4.57,0,0,0-3.76-1.36,5.34,5.34,0,0,0-3.11.68,1.94,1.94,0,0,0-.93,1.59,1.75,1.75,0,0,0,1,1.67,44.23,44.23,0,0,0,7,1.85,12.84,12.84,0,0,1,6,2.83,6.45,6.45,0,0,1,2,4.81,7.75,7.75,0,0,1-2.83,6.2c-1.88,1.6-4.8,2.4-8.74,2.4s-7-.85-8.92-2.54a8.3,8.3,0,0,1-2.87-6.48Z"/><path class="cls-5" d="M242.23,94.38h8.18L238.85,116v13h-7.22V116l-11.95-21.6h8.51l7.17,15.05Z"/><path class="cls-5" d="M271.76,125.81q-3.24,4-9.82,4t-9.82-4a15.83,15.83,0,0,1,0-19.19q3.23-4.05,9.82-4.06t9.82,4.06a15.87,15.87,0,0,1,0,19.19Zm-5.34-3.7a9.7,9.7,0,0,0,1.57-5.92,9.69,9.69,0,0,0-1.57-5.91,5.95,5.95,0,0,0-9,0,9.62,9.62,0,0,0-1.58,5.91,9.63,9.63,0,0,0,1.58,5.92,5.91,5.91,0,0,0,9,0Z"/><path class="cls-5" d="M286.43,103.38v15.4a8.1,8.1,0,0,0,.51,3.28,3.55,3.55,0,0,0,3.57,2,4.66,4.66,0,0,0,4.67-2.77,10.16,10.16,0,0,0,.65-4v-13.9h6.77v25.55h-6.49v-3.61c-.06.08-.22.31-.47.71a4.84,4.84,0,0,1-.88,1,9.62,9.62,0,0,1-3,1.92,10.45,10.45,0,0,1-3.43.51q-5.66,0-7.61-4.07a15.53,15.53,0,0,1-1.1-6.64v-15.4Z"/><path class="cls-5" d="M334.74,94.38v6.12H324.4v28.43h-7.27V100.5H306.75V94.38Z"/><path class="cls-5" d="M341.53,103.38v15.4a7.9,7.9,0,0,0,.52,3.28,3.53,3.53,0,0,0,3.56,2,4.66,4.66,0,0,0,4.67-2.77,10.16,10.16,0,0,0,.65-4v-13.9h6.77v25.55h-6.49v-3.61c-.06.08-.22.31-.46.71a4.89,4.89,0,0,1-.89,1,9.62,9.62,0,0,1-3,1.92,10.35,10.35,0,0,1-3.42.51q-5.66,0-7.62-4.07a15.53,15.53,0,0,1-1.1-6.64v-15.4Z"/><path class="cls-5" d="M386,106.46a14.67,14.67,0,0,1,2.87,9.37,16.46,16.46,0,0,1-2.83,9.87,10.27,10.27,0,0,1-13,2.65,10.13,10.13,0,0,1-2.5-2.63v3.21H364V94.43h6.68v12.28a10,10,0,0,1,2.81-2.72,8.38,8.38,0,0,1,4.62-1.17A9.54,9.54,0,0,1,386,106.46ZM380.43,122a9.48,9.48,0,0,0,1.44-5.49,12.34,12.34,0,0,0-.71-4.5,4.93,4.93,0,0,0-5-3.37,5,5,0,0,0-5,3.3,12.37,12.37,0,0,0-.71,4.55,9.45,9.45,0,0,0,1.47,5.44,5.05,5.05,0,0,0,4.47,2.15A4.63,4.63,0,0,0,380.43,122Z"/><path class="cls-5" d="M410.16,103.9a10.38,10.38,0,0,1,4.42,3.78,12.65,12.65,0,0,1,2,5.28,31.84,31.84,0,0,1,.22,5.07h-18.6c.1,2.57,1,4.36,2.67,5.39a6.79,6.79,0,0,0,3.68,1,5.66,5.66,0,0,0,3.71-1.17,5.58,5.58,0,0,0,1.38-1.75h6.82a8.35,8.35,0,0,1-2.48,4.61q-3.43,3.74-9.61,3.73a14,14,0,0,1-9-3.14q-3.9-3.15-3.9-10.23,0-6.65,3.52-10.18a12.33,12.33,0,0,1,9.14-3.54A14.48,14.48,0,0,1,410.16,103.9Zm-10,5.77a7,7,0,0,0-1.78,4H409.9a5.55,5.55,0,0,0-1.78-4,5.84,5.84,0,0,0-4-1.38A5.32,5.32,0,0,0,400.17,109.67Z"/><path class="cls-5" d="M457.28,114q-3,2.53-8.66,2.53h-7.2v12.42h-7.17V94.38h14.83a12,12,0,0,1,8.18,2.68c2,1.78,3.05,4.54,3.05,8.27Q460.31,111.45,457.28,114Zm-5.51-12.45a5.83,5.83,0,0,0-3.84-1.15h-6.51v10.18h6.51a5.5,5.5,0,0,0,3.84-1.25,5.06,5.06,0,0,0,1.37-3.93A4.79,4.79,0,0,0,451.77,101.53Z"/><path class="cls-5" d="M472.38,128.93h-6.67V94.38h6.67Z"/><path class="cls-5" d="M489,113.39a10.65,10.65,0,0,0,2.67-.58,2,2,0,0,0,1.44-1.9,2.24,2.24,0,0,0-1.11-2.17,6.94,6.94,0,0,0-3.24-.6,4.27,4.27,0,0,0-3.4,1.17,4.91,4.91,0,0,0-.95,2.35H478a9.72,9.72,0,0,1,1.88-5.51q2.65-3.37,9.13-3.37a16.29,16.29,0,0,1,7.49,1.66q3.27,1.66,3.27,6.28v11.72c0,.81,0,1.8.05,3a3.59,3.59,0,0,0,.4,1.78,2.31,2.31,0,0,0,1,.78v1h-7.27a7.71,7.71,0,0,1-.42-1.45c-.08-.45-.14-1-.19-1.55a13.81,13.81,0,0,1-3.2,2.56,9.79,9.79,0,0,1-4.91,1.24,8.47,8.47,0,0,1-5.76-2,7,7,0,0,1-2.27-5.62,7.26,7.26,0,0,1,3.66-6.82,16.41,16.41,0,0,1,5.9-1.64Zm4.08,3.12a7,7,0,0,1-1.29.64,10.49,10.49,0,0,1-1.8.46l-1.52.28a10,10,0,0,0-3.07.92,3,3,0,0,0-1.57,2.83,3,3,0,0,0,1,2.48,3.69,3.69,0,0,0,2.34.76,7,7,0,0,0,4-1.27c1.23-.84,1.86-2.38,1.91-4.62Z"/><path class="cls-5" d="M506.6,133.83l.85,0a11.44,11.44,0,0,0,1.87-.07,3.35,3.35,0,0,0,1.5-.54,3.58,3.58,0,0,0,1.09-1.67,4.13,4.13,0,0,0,.44-1.54L503,103.38h7.43L516,122.23l5.27-18.85h7.1l-8.76,25.13q-2.54,7.26-4,9t-5.92,1.75h-1.43q-.54,0-1.62-.09Z"/><path class="cls-5" d="M539.11,128.93h-6.68V94.38h6.68Z"/><path class="cls-5" d="M552.49,100.34h-6.77V94.17h6.77Zm-6.77,3h6.77v25.55h-6.77Z"/><path class="cls-5" d="M564.14,120.78a4.46,4.46,0,0,0,.92,2.53c.83.89,2.37,1.33,4.62,1.33a7.07,7.07,0,0,0,3.14-.58A1.88,1.88,0,0,0,574,122.3a1.91,1.91,0,0,0-.94-1.71q-.94-.59-7-2c-2.9-.72-4.95-1.61-6.14-2.69a5.89,5.89,0,0,1-1.78-4.6,8,8,0,0,1,2.79-6.08q2.77-2.53,7.83-2.54a14.34,14.34,0,0,1,7.81,1.91q3,1.91,3.46,6.6h-6.68a3.84,3.84,0,0,0-.73-2,4.57,4.57,0,0,0-3.76-1.36,5.36,5.36,0,0,0-3.11.68,1.94,1.94,0,0,0-.93,1.59,1.75,1.75,0,0,0,1,1.67,44.6,44.6,0,0,0,7,1.85,12.84,12.84,0,0,1,6,2.83,6.46,6.46,0,0,1,2,4.81,7.79,7.79,0,0,1-2.83,6.2q-2.83,2.4-8.75,2.4t-8.91-2.54a8.27,8.27,0,0,1-2.88-6.48Z"/><path class="cls-5" d="M583,108.38v-4.76h3.57V96.49h6.61v7.13h4.14v4.76h-4.14v13.5a3.07,3.07,0,0,0,.39,2,4.38,4.38,0,0,0,2.44.39h.65l.66,0v5l-3.16.11c-3.16.11-5.31-.43-6.47-1.64a4.87,4.87,0,0,1-1.12-3.54V108.38Z"/></g></g></svg>