<svg id="Layer_1" data-name="Layer 1" xmlns="http://www.w3.org/2000/svg" viewBox="0 0 955.87 250.79"><defs><style>.cls-1{fill:#2774ae;}.cls-2{fill:#003b5c;}</style></defs><path class="cls-1" d="M74,28.77c37,0,66.43,27.09,66.43,66s-29.45,66-66.43,66-66.44-27.09-66.44-66S37,28.77,74,28.77Zm0,24.51C52,53.28,35.47,69.62,35.47,94.77S52,136.27,74,136.27s38.48-16.34,38.48-41.5S95.89,53.28,74,53.28Z" transform="translate(-7.52 -28.77)"/><path class="cls-1" d="M161,68.54c10.32-4.3,26-8,41.93-8,31.39,0,52.67,17.84,52.67,48.16,0,33.32-20,52-53.32,52a52.44,52.44,0,0,1-15.26-1.94v38.48H161Zm26,67.73a40.57,40.57,0,0,0,13.33,1.93c16.55,0,29-8.81,29-28.59,0-16.56-11-25.8-26.87-25.8-5.16,0-11.18.64-15.48,2.36Z" transform="translate(-7.52 -28.77)"/><path class="cls-1" d="M295.62,117.78v.43c1.93,13.54,15.26,20.42,28.16,20.42s22.58-3,32-8.6V152c-8.82,6.24-21.72,8.82-34.62,8.82-31.17,0-50.74-19.14-50.74-49,0-31.61,20-51.17,46.87-51.17,29.89,0,41.5,19.78,41.5,45.15v12Zm39.13-15.48c-.22-11.83-5.81-20.43-18.06-20.43-11.18,0-18.49,8-20.86,20.43Z" transform="translate(-7.52 -28.77)"/><path class="cls-1" d="M380.76,69a139.08,139.08,0,0,1,45.79-8.38c24.94,0,41.07,9.24,41.07,37.84v60.19h-26V100.15c0-10.75-5.8-16.34-17-16.34a61,61,0,0,0-18.06,2.79v72h-25.8Z" transform="translate(-7.52 -28.77)"/><path class="cls-1" d="M492.56,30.92h27.3v77.4c0,22.79,10.53,29.67,27.09,29.67a127.31,127.31,0,0,0,22.57-1.94V30.92h27.31V154.54c-11.4,3.44-34,6.24-49.88,6.24-29,0-54.39-11-54.39-46.87Z" transform="translate(-7.52 -28.77)"/><path class="cls-1" d="M719.59,66.61c-8.17-8.17-20.21-13.33-34.83-13.33-23,0-38,17-38,41.49,0,25.16,16.34,41.5,39.13,41.5,14.62,0,25.15-4.3,35.9-13.12v28.16c-11.82,7.1-24.08,9.47-37,9.47-40,0-66-27.09-66-66,0-39.13,27.09-66,66-66,12.9,0,24.51,2.58,34.83,8.6Z" transform="translate(-7.52 -28.77)"/><path class="cls-1" d="M744.53,30.92h27.3V134.76h50.1v23.86h-77.4Z" transform="translate(-7.52 -28.77)"/><path class="cls-1" d="M869.66,131.54l-9.89,27.08h-28.6l49.45-127.7h32.89l49.88,127.7H933.72l-9.89-27.08ZM897,57.36l-19.13,52h38Z" transform="translate(-7.52 -28.77)"/><path class="cls-2" d="M12,218.84H45.31v8.22H21.66v10.76H42.39v8.12H21.66v19.62H12Z" transform="translate(-7.52 -28.77)"/><path class="cls-2" d="M73.07,230.15l.78,0v9.27c-.58-.07-1.08-.11-1.53-.13l-1.08,0q-5.46,0-7.33,3.55a13.84,13.84,0,0,0-1,6.16v16.54h-9.1V231h8.63v6A19.1,19.1,0,0,1,66,232.26a10,10,0,0,1,6.6-2.12Z" transform="translate(-7.52 -28.77)"/><path class="cls-2" d="M104.61,231.66a14,14,0,0,1,6,5.12,17,17,0,0,1,2.76,7.15,45.26,45.26,0,0,1,.3,6.87H88.45q.21,5.2,3.62,7.3a9.16,9.16,0,0,0,5,1.3,7,7,0,0,0,6.88-4h9.23a11.26,11.26,0,0,1-3.35,6.25q-4.65,5.06-13,5.05a18.85,18.85,0,0,1-12.19-4.26q-5.28-4.25-5.28-13.85,0-9,4.77-13.78A16.66,16.66,0,0,1,96.48,230,19.67,19.67,0,0,1,104.61,231.66Zm-13.53,7.82a9.37,9.37,0,0,0-2.41,5.35h15.59a7.56,7.56,0,0,0-2.41-5.46,7.91,7.91,0,0,0-5.37-1.87A7.17,7.17,0,0,0,91.08,239.48Z" transform="translate(-7.52 -28.77)"/><path class="cls-2" d="M140.51,232.17a14.15,14.15,0,0,1,3.17,4V231h8.73v48.24h-8.95v-18A9.63,9.63,0,0,1,140,265a12,12,0,0,1-6.71,1.64,13.12,13.12,0,0,1-10.22-4.8q-4.22-4.8-4.22-12.8,0-8.64,4.24-13.82A13,13,0,0,1,133.52,230,10.87,10.87,0,0,1,140.51,232.17Zm1.93,22.72a15.36,15.36,0,0,0,1.27-6.68,14.29,14.29,0,0,0-1.08-5.69,6.86,6.86,0,0,0-6.81-4.51,6.65,6.65,0,0,0-5.51,2.64q-2.09,2.64-2.09,8a15.37,15.37,0,0,0,1,5.88,6.55,6.55,0,0,0,6.61,4.35A6.84,6.84,0,0,0,142.44,254.89Z" transform="translate(-7.52 -28.77)"/><path class="cls-2" d="M172.79,231v20.85a11.08,11.08,0,0,0,.69,4.45q1.25,2.63,4.84,2.63c3.07,0,5.18-1.25,6.31-3.74a13.66,13.66,0,0,0,.89-5.37V231h9.17v34.6H185.9v-4.89c-.09.11-.3.42-.64.95a6,6,0,0,1-1.2,1.4,12.4,12.4,0,0,1-4.1,2.6,14,14,0,0,1-4.63.7q-7.67,0-10.32-5.52c-1-2-1.49-5-1.49-9V231Z" transform="translate(-7.52 -28.77)"/><path class="cls-2" d="M229,231.66a14.15,14.15,0,0,1,6,5.12,17.11,17.11,0,0,1,2.75,7.15,42.76,42.76,0,0,1,.3,6.87h-25.2q.21,5.2,3.62,7.3a9.18,9.18,0,0,0,5,1.3,7.64,7.64,0,0,0,5-1.59,7.45,7.45,0,0,0,1.86-2.38h9.24a11.26,11.26,0,0,1-3.35,6.25q-4.65,5.06-13,5.05A18.87,18.87,0,0,1,209,262.47q-5.26-4.25-5.27-13.85,0-9,4.76-13.78a16.67,16.67,0,0,1,12.37-4.8A19.72,19.72,0,0,1,229,231.66Zm-13.53,7.82a9.31,9.31,0,0,0-2.41,5.35h15.58a7.52,7.52,0,0,0-2.41-5.46,7.89,7.89,0,0,0-5.36-1.87A7.14,7.14,0,0,0,215.42,239.48Z" transform="translate(-7.52 -28.77)"/><path class="cls-2" d="M273.38,233q3.39,2.81,3.39,9.31v23.3h-9.26V244.51a9.72,9.72,0,0,0-.73-4.19q-1.32-2.65-5-2.66a6.25,6.25,0,0,0-6.27,3.9,13.48,13.48,0,0,0-.88,5.27v18.73h-9.05V231h8.76v5a15.31,15.31,0,0,1,3.29-3.84,11.35,11.35,0,0,1,7.05-2.09A13.24,13.24,0,0,1,273.38,233Z" transform="translate(-7.52 -28.77)"/><path class="cls-2" d="M284.56,237.72v-6.44h4.82v-9.65h8.95v9.65H304v6.44h-5.62V256c0,1.42.18,2.3.54,2.65s1.46.53,3.3.53l.87,0,.91-.05v6.76l-4.29.16q-6.41.23-8.76-2.22a6.63,6.63,0,0,1-1.52-4.79v-21.3Z" transform="translate(-7.52 -28.77)"/><path class="cls-2" d="M321.92,265.56h-9.05V218.77h9.05Z" transform="translate(-7.52 -28.77)"/><path class="cls-2" d="M335,272.19l1.14.06a14.08,14.08,0,0,0,2.54-.09,4.63,4.63,0,0,0,2-.73,4.9,4.9,0,0,0,1.48-2.26,5.63,5.63,0,0,0,.59-2.09L330.09,231h10.07l7.55,25.52L354.85,231h9.62l-11.86,34q-3.45,9.83-5.44,12.2t-8,2.36h-1.94c-.49,0-1.22-.05-2.19-.11Z" transform="translate(-7.52 -28.77)"/><path class="cls-2" d="M405.45,218.77h11.06l16.55,46.79h-10.6l-3.08-9.62H402.15L399,265.56H388.75Zm-.64,29.11h12l-5.91-18.41Z" transform="translate(-7.52 -28.77)"/><path class="cls-2" d="M448.22,254.51a6,6,0,0,0,1.25,3.43c1.12,1.21,3.21,1.81,6.25,1.81A9.67,9.67,0,0,0,460,259a2.66,2.66,0,0,0,.31-4.7q-1.27-.8-9.46-2.73-5.9-1.46-8.31-3.65a7.9,7.9,0,0,1-2.41-6.22,10.76,10.76,0,0,1,3.77-8.24q3.76-3.43,10.6-3.44,6.5,0,10.58,2.58t4.69,8.94h-9a5.39,5.39,0,0,0-1-2.76q-1.5-1.85-5.09-1.84a7.28,7.28,0,0,0-4.22.92,2.64,2.64,0,0,0-1.26,2.16,2.37,2.37,0,0,0,1.34,2.25c.89.49,4,1.32,9.44,2.51q5.41,1.26,8.11,3.84a8.69,8.69,0,0,1,2.66,6.5,10.5,10.5,0,0,1-3.83,8.4Q463,266.73,455,266.73q-8.17,0-12.07-3.44a11.2,11.2,0,0,1-3.9-8.78Z" transform="translate(-7.52 -28.77)"/><path class="cls-2" d="M480.19,218.93h8.89v25.24l11.4-13h11.25L499.33,244l12.88,21.55h-11l-8.38-14.78-3.74,3.89v10.89h-8.89Z" transform="translate(-7.52 -28.77)"/><path class="cls-2" d="M541.9,231.66a14.09,14.09,0,0,1,6,5.12,17,17,0,0,1,2.76,7.15,44.22,44.22,0,0,1,.29,6.87H525.74c.14,3.47,1.34,5.9,3.62,7.3a9.15,9.15,0,0,0,5,1.3,7.67,7.67,0,0,0,5-1.59,7.59,7.59,0,0,0,1.86-2.38h9.23a11.26,11.26,0,0,1-3.35,6.25q-4.65,5.06-13,5.05a18.84,18.84,0,0,1-12.18-4.26q-5.28-4.25-5.28-13.85,0-9,4.77-13.78a16.66,16.66,0,0,1,12.37-4.8A19.67,19.67,0,0,1,541.9,231.66Zm-13.53,7.82a9.37,9.37,0,0,0-2.41,5.35h15.58a7.48,7.48,0,0,0-2.41-5.46,7.89,7.89,0,0,0-5.36-1.87A7.17,7.17,0,0,0,528.37,239.48Z" transform="translate(-7.52 -28.77)"/><path class="cls-2" d="M576.78,231.52a11,11,0,0,1,4,3.82v-16.5h9.17v46.72h-8.79v-4.8a12.8,12.8,0,0,1-4.42,4.48,12.38,12.38,0,0,1-6.15,1.4,12.87,12.87,0,0,1-10.21-4.91q-4.14-4.91-4.14-12.58,0-8.86,4.08-13.94a13.27,13.27,0,0,1,10.9-5.07A11.17,11.17,0,0,1,576.78,231.52ZM579,256.16a12.63,12.63,0,0,0,2-7.39q0-6.35-3.21-9.08a6.89,6.89,0,0,0-4.57-1.65,6.35,6.35,0,0,0-5.82,3,16.16,16.16,0,0,0,0,15.11,6.4,6.4,0,0,0,5.73,2.87A6.66,6.66,0,0,0,579,256.16Z" transform="translate(-7.52 -28.77)"/><path class="cls-2" d="M664.35,251.88a17.38,17.38,0,0,1-3.63,6.68l5.37,5.06-5.1,5.32-5.62-5.33a19.69,19.69,0,0,1-12,3.25q-9.15,0-15.13-5.46Q621,254.83,621,242.1t7.43-19.39a21.88,21.88,0,0,1,15.07-5.36A21.63,21.63,0,0,1,658.77,223q7.11,6.57,7.11,18.37A31.06,31.06,0,0,1,664.35,251.88Zm-17.73,6.28a16.54,16.54,0,0,0,2.19-.79l-4.74-4.51,5-5.24,4.75,4.48a22.77,22.77,0,0,0,1.56-4,23.35,23.35,0,0,0,.69-6q0-7.87-3.22-12.17t-9.41-4.3a11.49,11.49,0,0,0-9.27,4.13q-3.45,4.13-3.46,12.34,0,9.61,5,13.78a11.57,11.57,0,0,0,7.68,2.69A12.4,12.4,0,0,0,646.62,258.16Z" transform="translate(-7.52 -28.77)"/><path class="cls-2" d="M684.54,231v20.85a11.05,11.05,0,0,0,.7,4.45q1.23,2.63,4.83,2.63c3.08,0,5.18-1.25,6.32-3.74a13.67,13.67,0,0,0,.88-5.37V231h9.18v34.6h-8.8v-4.89c-.08.11-.29.42-.63.95a6.48,6.48,0,0,1-1.2,1.4,12.5,12.5,0,0,1-4.1,2.6,14.11,14.11,0,0,1-4.64.7q-7.65,0-10.32-5.52c-1-2-1.48-5-1.48-9V231Z" transform="translate(-7.52 -28.77)"/><path class="cls-2" d="M740.7,231.66a14,14,0,0,1,6,5.12,17,17,0,0,1,2.76,7.15,45.26,45.26,0,0,1,.3,6.87h-25.2q.21,5.2,3.62,7.3a9.16,9.16,0,0,0,5,1.3,7,7,0,0,0,6.88-4h9.23a11.26,11.26,0,0,1-3.35,6.25q-4.65,5.06-13,5.05a18.85,18.85,0,0,1-12.19-4.26q-5.28-4.25-5.28-13.85,0-9,4.77-13.78a16.66,16.66,0,0,1,12.37-4.8A19.67,19.67,0,0,1,740.7,231.66Zm-13.53,7.82a9.37,9.37,0,0,0-2.41,5.35h15.59a7.56,7.56,0,0,0-2.41-5.46,7.91,7.91,0,0,0-5.37-1.87A7.17,7.17,0,0,0,727.17,239.48Z" transform="translate(-7.52 -28.77)"/><path class="cls-2" d="M764.25,254.51a6.08,6.08,0,0,0,1.24,3.43q1.69,1.81,6.25,1.81A9.69,9.69,0,0,0,776,259a2.66,2.66,0,0,0,.31-4.7q-1.27-.8-9.46-2.73-5.91-1.46-8.31-3.65a7.91,7.91,0,0,1-2.42-6.22,10.8,10.8,0,0,1,3.77-8.24Q763.67,230,770.5,230q6.5,0,10.58,2.58t4.69,8.94h-9a5.3,5.3,0,0,0-1-2.76q-1.5-1.85-5.1-1.84a7.27,7.27,0,0,0-4.21.92,2.64,2.64,0,0,0-1.26,2.16,2.37,2.37,0,0,0,1.34,2.25c.89.49,4,1.32,9.44,2.51,3.6.84,6.31,2.12,8.1,3.84a8.69,8.69,0,0,1,2.67,6.5,10.53,10.53,0,0,1-3.83,8.4q-3.84,3.25-11.85,3.25-8.17,0-12.07-3.44a11.22,11.22,0,0,1-3.89-8.78Z" transform="translate(-7.52 -28.77)"/><path class="cls-2" d="M792.76,237.72v-6.44h4.82v-9.65h8.95v9.65h5.62v6.44h-5.62V256c0,1.42.18,2.3.54,2.65s1.46.53,3.3.53l.87,0,.91-.05v6.76l-4.29.16q-6.4.23-8.76-2.22a6.63,6.63,0,0,1-1.52-4.79v-21.3Z" transform="translate(-7.52 -28.77)"/><path class="cls-2" d="M830.18,226.84H821v-8.35h9.17ZM821,231h9.17v34.6H821Z" transform="translate(-7.52 -28.77)"/><path class="cls-2" d="M870.72,261.32q-4.38,5.42-13.3,5.41t-13.3-5.41a21.45,21.45,0,0,1,0-26q4.38-5.49,13.3-5.49t13.3,5.49a21.45,21.45,0,0,1,0,26Zm-7.24-5q2.13-2.83,2.13-8t-2.13-8a8,8,0,0,0-12.2,0q-2.14,2.8-2.15,8t2.15,8a8,8,0,0,0,12.2,0Z" transform="translate(-7.52 -28.77)"/><path class="cls-2" d="M912.39,233q3.4,2.81,3.4,9.31v23.3h-9.27V244.51a9.74,9.74,0,0,0-.72-4.19q-1.34-2.65-5-2.66a6.24,6.24,0,0,0-6.27,3.9,13.47,13.47,0,0,0-.89,5.27v18.73h-9V231h8.76v5a15.3,15.3,0,0,1,3.28-3.84,11.39,11.39,0,0,1,7-2.09A13.22,13.22,0,0,1,912.39,233Z" transform="translate(-7.52 -28.77)"/><path class="cls-2" d="M934.14,254.51a6.08,6.08,0,0,0,1.24,3.43q1.7,1.81,6.25,1.81a9.69,9.69,0,0,0,4.26-.79,2.66,2.66,0,0,0,.31-4.7q-1.28-.8-9.47-2.73-5.9-1.46-8.3-3.65a7.91,7.91,0,0,1-2.42-6.22,10.8,10.8,0,0,1,3.77-8.24q3.76-3.43,10.61-3.44,6.5,0,10.58,2.58t4.69,8.94h-9a5.3,5.3,0,0,0-1-2.76q-1.49-1.85-5.09-1.84a7.25,7.25,0,0,0-4.21.92,2.64,2.64,0,0,0-1.26,2.16,2.36,2.36,0,0,0,1.34,2.25c.89.49,4,1.32,9.44,2.51q5.4,1.26,8.1,3.84a8.69,8.69,0,0,1,2.67,6.5,10.53,10.53,0,0,1-3.83,8.4q-3.84,3.25-11.85,3.25-8.17,0-12.07-3.44a11.19,11.19,0,0,1-3.89-8.78Z" transform="translate(-7.52 -28.77)"/></svg>