<svg id="Layer_1" data-name="Layer 1" xmlns="http://www.w3.org/2000/svg" viewBox="0 0 800 172"><defs><style>.cls-1{fill:#c3d7ee;}.cls-2{fill:#8bb8e8;}.cls-3{fill:#2774ae;}.cls-4{isolation:isolate;}.cls-5{fill:#003b5c;}</style></defs><rect class="cls-1" width="800" height="172"/><g id="art"><polygon class="cls-2" points="113.4 98.1 111 26.2 94.3 33.5 96.2 91 96.2 91 58 131.9 65.5 149.2 113.4 98.1"/><polyline class="cls-3" points="60.4 0 94.3 33.5 111 26.2 84.4 0"/><polyline class="cls-3" points="0 149.6 65.5 149.2 58 131.9 0 132.3"/></g><g class="cls-4"><path class="cls-5" d="M192.87,61.25q-2.66,2.2-7.58,2.21H179V74.33h-6.27V44.1h13a10.44,10.44,0,0,1,7.15,2.34q2.67,2.34,2.67,7.24Q195.52,59,192.87,61.25Zm-4.82-10.89a5.09,5.09,0,0,0-3.36-1H179v8.9h5.7a4.85,4.85,0,0,0,3.36-1.08,4.46,4.46,0,0,0,1.2-3.45A4.16,4.16,0,0,0,188.05,50.36Z"/><path class="cls-5" d="M206.13,49.31H200.2V43.92h5.93ZM200.2,52h5.93V74.33H200.2Z"/><path class="cls-5" d="M225.16,60a5.09,5.09,0,0,0-.85-2.26,3.53,3.53,0,0,0-3.06-1.35,4,4,0,0,0-4.05,2.93,12.28,12.28,0,0,0-.57,4.13,11.27,11.27,0,0,0,.57,4,3.92,3.92,0,0,0,4,2.79,3.49,3.49,0,0,0,2.92-1.11,5.6,5.6,0,0,0,1.05-2.87h6a9.73,9.73,0,0,1-1.93,5.05q-2.75,3.83-8.15,3.83t-7.94-3.2a12.9,12.9,0,0,1-2.55-8.29c0-3.84.94-6.82,2.82-9a9.79,9.79,0,0,1,7.76-3.19A11.65,11.65,0,0,1,228,53.33q2.68,1.89,3.18,6.67Z"/><path class="cls-5" d="M232.85,56.35V52.18H236V46h5.79v6.23h3.63v4.17h-3.63V68.16c0,.92.11,1.49.35,1.71a3.77,3.77,0,0,0,2.13.34h.56l.59,0v4.37l-2.77.1q-4.14.15-5.66-1.44a4.25,4.25,0,0,1-1-3.09V56.35Z"/><path class="cls-5" d="M255,52V65.45a7.09,7.09,0,0,0,.44,2.87A3.1,3.1,0,0,0,258.53,70a4.09,4.09,0,0,0,4.08-2.42,8.84,8.84,0,0,0,.57-3.47V52h5.93V74.33h-5.69V71.17c-.05.07-.19.28-.4.62a4.21,4.21,0,0,1-.78.9,8.09,8.09,0,0,1-2.65,1.68,9,9,0,0,1-3,.45q-4.95,0-6.66-3.56a13.75,13.75,0,0,1-1-5.81V52Z"/><path class="cls-5" d="M287.2,51.46l.51,0v6c-.37,0-.7-.06-1-.08l-.7,0q-3.52,0-4.73,2.3a9,9,0,0,0-.68,4V74.33h-5.89V52h5.58v3.9a12.45,12.45,0,0,1,2.36-3.06,6.4,6.4,0,0,1,4.27-1.37Z"/><path class="cls-5" d="M297.14,49.31h-5.93V43.92h5.93ZM291.21,52h5.93V74.33h-5.93Z"/><path class="cls-5" d="M320.83,53.26q2.19,1.82,2.19,6v15h-6V60.74a6.13,6.13,0,0,0-.47-2.71,3.27,3.27,0,0,0-3.25-1.72,4.05,4.05,0,0,0-4.06,2.52,8.91,8.91,0,0,0-.56,3.4v12.1h-5.85V52h5.66v3.26a9.93,9.93,0,0,1,2.12-2.48,7.39,7.39,0,0,1,4.56-1.35A8.59,8.59,0,0,1,320.83,53.26Z"/><path class="cls-5" d="M339.51,52A7,7,0,0,1,343,55.2V52h5.71v21.2c0,2.89-.49,5.06-1.46,6.53q-2.51,3.77-9.6,3.77a13.06,13.06,0,0,1-7-1.68,6.22,6.22,0,0,1-3-5H334a2.65,2.65,0,0,0,.8,1.48,5,5,0,0,0,3.18.8c2.11,0,3.51-.71,4.22-2.11a10.65,10.65,0,0,0,.7-4.56V71a7.11,7.11,0,0,1-1.8,2.15,7.26,7.26,0,0,1-4.53,1.33,8.58,8.58,0,0,1-6.89-3,12.27,12.27,0,0,1-2.57-8.19,13.82,13.82,0,0,1,2.48-8.38,8.18,8.18,0,0,1,7-3.39A7.71,7.71,0,0,1,339.51,52Zm2,16q1.41-1.55,1.41-4.93a7.59,7.59,0,0,0-1.33-4.84A4.4,4.4,0,0,0,338,56.55a4.24,4.24,0,0,0-4.23,2.89,10.5,10.5,0,0,0-.61,3.8,8.75,8.75,0,0,0,.65,3.46,4.26,4.26,0,0,0,4.25,2.83A4.46,4.46,0,0,0,341.5,68Z"/><path class="cls-5" d="M366.25,44.1h6.42V62.67a10.51,10.51,0,0,0,.74,4.55q1.14,2.53,5,2.54c2.55,0,4.2-.85,5-2.54a10.54,10.54,0,0,0,.73-4.55V44.1h6.42V62.68A15.66,15.66,0,0,1,389,70.19q-2.79,4.92-10.63,4.92t-10.64-4.92a15.53,15.53,0,0,1-1.5-7.51Z"/><path class="cls-5" d="M399.47,47.26a12.42,12.42,0,0,1,9.29-3.73q7.55,0,11,5a11,11,0,0,1,2.07,5.64h-6.32A8.57,8.57,0,0,0,414,50.89a6.85,6.85,0,0,0-10.32.81c-1.3,1.85-1.95,4.48-1.95,7.87s.69,5.93,2.06,7.62A6.46,6.46,0,0,0,409,69.72a5.93,5.93,0,0,0,5-2.18,9.56,9.56,0,0,0,1.56-3.5h6.28a13.67,13.67,0,0,1-4.15,8,12.11,12.11,0,0,1-8.55,3.09q-6.47,0-10.15-4.18t-3.69-11.53Q395.27,51.55,399.47,47.26Z"/><path class="cls-5" d="M426.91,44.1h6.32V68.9h15.09v5.43H426.91Z"/><path class="cls-5" d="M461.21,44.1h7.15l10.69,30.23H472.2l-2-6.21H459.08L457,74.33h-6.61Zm-.41,18.81h7.74L464.72,51Z"/><path class="cls-5" d="M484.46,52.84h6.21V59h-6.21Zm0,15.36h6.21v6.13h-6.21Z"/><path class="cls-5" d="M530.52,44.1v5.36h-9V74.33h-6.35V49.46H506V44.1Z"/><path class="cls-5" d="M549.8,52.1a6.5,6.5,0,0,1,2.77,2.2,5.76,5.76,0,0,1,1.12,2.58,31,31,0,0,1,.21,4.32V74.33h-6V60.72a6,6,0,0,0-.61-2.92,3.06,3.06,0,0,0-3-1.56,4.16,4.16,0,0,0-3.5,1.55,7.19,7.19,0,0,0-1.19,4.43V74.33h-5.84V44.21h5.84V54.87a7.23,7.23,0,0,1,2.93-2.72,8.31,8.31,0,0,1,3.51-.77A9.41,9.41,0,0,1,549.8,52.1Z"/><path class="cls-5" d="M574,52.43a9,9,0,0,1,3.86,3.31,10.92,10.92,0,0,1,1.78,4.62,28,28,0,0,1,.2,4.44H563.52q.13,3.36,2.33,4.71a6,6,0,0,0,3.23.84,5,5,0,0,0,3.24-1,4.83,4.83,0,0,0,1.2-1.54h6a7.3,7.3,0,0,1-2.17,4q-3,3.26-8.41,3.26A12.2,12.2,0,0,1,561,72.34q-3.4-2.75-3.41-9,0-5.8,3.08-8.91a10.8,10.8,0,0,1,8-3.1A12.7,12.7,0,0,1,574,52.43Zm-8.74,5a6,6,0,0,0-1.56,3.46h10.07a4.89,4.89,0,0,0-1.56-3.53,5.09,5.09,0,0,0-3.46-1.21A4.62,4.62,0,0,0,565.22,57.48Z"/><path class="cls-5" d="M612.58,44.1h6.56l-10.3,30.23h-6L592.65,44.1h6.74L606,67.05Z"/><path class="cls-5" d="M627.71,49.31h-5.93V43.92h5.93ZM621.78,52h5.93V74.33h-5.93Z"/><path class="cls-5" d="M637.9,67.2a3.9,3.9,0,0,0,.8,2.21c.73.78,2.08,1.17,4,1.17a6.22,6.22,0,0,0,2.75-.51,1.72,1.72,0,0,0,.2-3,33.63,33.63,0,0,0-6.12-1.76,12.72,12.72,0,0,1-5.36-2.36,5.11,5.11,0,0,1-1.56-4,7,7,0,0,1,2.43-5.32,9.79,9.79,0,0,1,6.86-2.23A12.63,12.63,0,0,1,648.77,53c1.76,1.12,2.77,3,3,5.78H646a3.59,3.59,0,0,0-.64-1.79A4,4,0,0,0,642,55.81a4.73,4.73,0,0,0-2.73.6,1.7,1.7,0,0,0-.81,1.39,1.53,1.53,0,0,0,.87,1.46,38.31,38.31,0,0,0,6.1,1.62,11.16,11.16,0,0,1,5.23,2.48,5.63,5.63,0,0,1,1.73,4.2A6.8,6.8,0,0,1,649.94,73q-2.48,2.1-7.65,2.1t-7.8-2.22A7.25,7.25,0,0,1,632,67.2Z"/><path class="cls-5" d="M662.55,52V65.45a7.06,7.06,0,0,0,.45,2.87A3.1,3.1,0,0,0,666.12,70a4.09,4.09,0,0,0,4.08-2.42,8.84,8.84,0,0,0,.57-3.47V52h5.93V74.33H671V71.17c-.06.07-.19.28-.41.62a4.21,4.21,0,0,1-.78.9,8,8,0,0,1-2.65,1.68,9,9,0,0,1-3,.45q-5,0-6.67-3.56a13.75,13.75,0,0,1-1-5.81V52Z"/><path class="cls-5" d="M691.23,60.74a9.16,9.16,0,0,0,2.34-.52,1.75,1.75,0,0,0,1.26-1.66,2,2,0,0,0-1-1.9,6.22,6.22,0,0,0-2.84-.52,3.7,3.7,0,0,0-3,1,4.18,4.18,0,0,0-.83,2h-5.64a8.49,8.49,0,0,1,1.65-4.82q2.32-3,8-2.95a14.26,14.26,0,0,1,6.55,1.45q2.87,1.45,2.86,5.5V68.65c0,.71,0,1.57,0,2.59a3.22,3.22,0,0,0,.35,1.55,2.07,2.07,0,0,0,.86.68v.86h-6.36a6.31,6.31,0,0,1-.36-1.27c-.07-.4-.13-.85-.17-1.35a12.17,12.17,0,0,1-2.8,2.23,8.46,8.46,0,0,1-4.3,1.09,7.43,7.43,0,0,1-5-1.73,6.18,6.18,0,0,1-2-4.92,6.37,6.37,0,0,1,3.2-6A14.39,14.39,0,0,1,689.23,61Zm3.58,2.72a6.74,6.74,0,0,1-1.14.57,10.6,10.6,0,0,1-1.57.4l-1.33.24a8.89,8.89,0,0,0-2.68.8A2.68,2.68,0,0,0,686.71,68a2.62,2.62,0,0,0,.84,2.17,3.21,3.21,0,0,0,2.05.66,6.09,6.09,0,0,0,3.53-1.1c1.08-.74,1.63-2.09,1.68-4Z"/><path class="cls-5" d="M711.71,74.33h-5.85V44.1h5.85Z"/><path class="cls-5" d="M283.79,124.73V94.5h6.27V106h11.76V94.5h6.27v30.23h-6.27V111.24H290.06v13.49Z"/><path class="cls-5" d="M319.7,99.71h-5.93V94.32h5.93Zm-5.93,2.67h5.93v22.35h-5.93Z"/><path class="cls-5" d="M329.89,117.6a3.9,3.9,0,0,0,.8,2.21c.73.78,2.08,1.17,4,1.17a6.19,6.19,0,0,0,2.75-.51,1.72,1.72,0,0,0,.2-3,33.39,33.39,0,0,0-6.11-1.76,12.77,12.77,0,0,1-5.37-2.36,5.11,5.11,0,0,1-1.56-4,7,7,0,0,1,2.44-5.32,9.79,9.79,0,0,1,6.85-2.23,12.63,12.63,0,0,1,6.83,1.67c1.76,1.12,2.77,3,3,5.78H338a3.41,3.41,0,0,0-.64-1.79,4,4,0,0,0-3.29-1.19,4.69,4.69,0,0,0-2.72.6,1.71,1.71,0,0,0-.81,1.39,1.52,1.52,0,0,0,.86,1.46,38.31,38.31,0,0,0,6.1,1.62,11.2,11.2,0,0,1,5.24,2.48,5.62,5.62,0,0,1,1.72,4.2,6.8,6.8,0,0,1-2.48,5.43q-2.48,2.1-7.65,2.1t-7.8-2.22A7.25,7.25,0,0,1,324,117.6Z"/><path class="cls-5" d="M346.42,106.75v-4.17h3.12V96.35h5.78v6.23H359v4.17h-3.63v11.81a2.65,2.65,0,0,0,.35,1.71,3.77,3.77,0,0,0,2.13.34h.57l.58,0v4.37l-2.77.1q-4.14.15-5.66-1.44a4.29,4.29,0,0,1-1-3.09V106.75Z"/><path class="cls-5" d="M381.34,122q-2.82,3.5-8.59,3.49T364.16,122a13.87,13.87,0,0,1,0-16.79q2.83-3.55,8.59-3.55t8.59,3.55a13.87,13.87,0,0,1,0,16.79Zm-4.67-3.23a10.46,10.46,0,0,0,0-10.35,5.19,5.19,0,0,0-7.89,0,10.39,10.39,0,0,0,0,10.35,5.19,5.19,0,0,0,7.89,0Z"/><path class="cls-5" d="M400.78,101.86l.5,0v6c-.37,0-.7-.07-1-.09l-.69,0q-3.53,0-4.74,2.3a9,9,0,0,0-.68,4v10.68H388.3V102.38h5.58v3.9a12.42,12.42,0,0,1,2.35-3.06,6.42,6.42,0,0,1,4.27-1.37Z"/><path class="cls-5" d="M405.58,129l.74,0A8.8,8.8,0,0,0,408,129a3.09,3.09,0,0,0,1.32-.47,3.19,3.19,0,0,0,1-1.46,3.63,3.63,0,0,0,.38-1.35l-8.21-23.34h6.5l4.88,16.49,4.61-16.49h6.22l-7.67,22q-2.22,6.36-3.51,7.89t-5.18,1.53H407c-.31,0-.79,0-1.42-.08Z"/><path class="cls-5" d="M458.37,122q-2.82,3.5-8.59,3.49T441.19,122a13.87,13.87,0,0,1,0-16.79q2.82-3.55,8.59-3.55t8.59,3.55a13.87,13.87,0,0,1,0,16.79Zm-4.67-3.23a10.46,10.46,0,0,0,0-10.35,5.19,5.19,0,0,0-7.89,0,10.39,10.39,0,0,0,0,10.35,5.19,5.19,0,0,0,7.89,0Z"/><path class="cls-5" d="M474.63,94.23l1.24.09v4.76c-.33,0-.88-.07-1.66-.1a1.92,1.92,0,0,0-1.6.52,1.87,1.87,0,0,0-.44,1.2v1.88H476v4.13h-3.84v18h-5.8v-18h-3.28v-4.13h3.2v-1.43q0-3.59,1.21-4.94,1.28-2,6.13-2C474,94.2,474.33,94.21,474.63,94.23Z"/><path class="cls-5" d="M491.51,94.5h6.42v18.57a10.51,10.51,0,0,0,.74,4.55q1.14,2.53,5,2.54t5-2.54a10.54,10.54,0,0,0,.73-4.55V94.5h6.42v18.58a15.54,15.54,0,0,1-1.49,7.51q-2.79,4.92-10.63,4.92T493,120.59a15.53,15.53,0,0,1-1.5-7.51Z"/><path class="cls-5" d="M524.73,97.66A12.44,12.44,0,0,1,534,93.93q7.54,0,11,5a10.86,10.86,0,0,1,2.07,5.64h-6.32a8.57,8.57,0,0,0-1.54-3.28,6.26,6.26,0,0,0-5-2,6.17,6.17,0,0,0-5.32,2.78q-2,2.79-2,7.87t2.06,7.62a6.46,6.46,0,0,0,5.22,2.53,5.93,5.93,0,0,0,5-2.18,9.32,9.32,0,0,0,1.56-3.5h6.28a13.67,13.67,0,0,1-4.15,8,12.11,12.11,0,0,1-8.55,3.09q-6.45,0-10.15-4.18t-3.69-11.53Q520.53,102,524.73,97.66Z"/><path class="cls-5" d="M552.17,94.5h6.32v24.8h15.09v5.43H552.17Z"/><path class="cls-5" d="M586.47,94.5h7.15l10.7,30.23h-6.85l-2-6.21H584.34l-2.05,6.21h-6.61Zm-.41,18.81h7.74L590,101.42Z"/></g></svg>