<svg id="Layer_1" data-name="Layer 1" xmlns="http://www.w3.org/2000/svg" viewBox="0 0 955.87 238.23"><defs><style>.cls-1{fill:#2774ae;}.cls-2{fill:#003b5c;}</style></defs><path class="cls-1" d="M74,28.77c37,0,66.43,27.09,66.43,66s-29.45,66-66.43,66-66.44-27.09-66.44-66S37,28.77,74,28.77Zm0,24.51C52,53.28,35.47,69.62,35.47,94.77S52,136.27,74,136.27s38.48-16.34,38.48-41.5S95.89,53.28,74,53.28Z" transform="translate(-7.52 -28.77)"/><path class="cls-1" d="M161,68.54c10.32-4.3,26-8,41.93-8,31.39,0,52.67,17.84,52.67,48.16,0,33.32-20,52-53.32,52a52.44,52.44,0,0,1-15.26-1.94v38.48H161Zm26,67.73a40.57,40.57,0,0,0,13.33,1.93c16.55,0,29-8.81,29-28.59,0-16.56-11-25.8-26.87-25.8-5.16,0-11.18.64-15.48,2.36Z" transform="translate(-7.52 -28.77)"/><path class="cls-1" d="M295.62,117.78v.43c1.93,13.54,15.26,20.42,28.16,20.42s22.58-3,32-8.6V152c-8.82,6.24-21.72,8.82-34.62,8.82-31.17,0-50.74-19.14-50.74-49,0-31.61,20-51.17,46.87-51.17,29.89,0,41.5,19.78,41.5,45.15v12Zm39.13-15.48c-.22-11.83-5.81-20.43-18.06-20.43-11.18,0-18.49,8-20.86,20.43Z" transform="translate(-7.52 -28.77)"/><path class="cls-1" d="M380.76,69a139.08,139.08,0,0,1,45.79-8.38c24.94,0,41.07,9.24,41.07,37.84v60.19h-26V100.15c0-10.75-5.8-16.34-17-16.34a61,61,0,0,0-18.06,2.79v72h-25.8Z" transform="translate(-7.52 -28.77)"/><path class="cls-1" d="M492.56,30.92h27.3v77.4c0,22.79,10.53,29.67,27.09,29.67a127.31,127.31,0,0,0,22.57-1.94V30.92h27.31V154.54c-11.4,3.44-34,6.24-49.88,6.24-29,0-54.39-11-54.39-46.87Z" transform="translate(-7.52 -28.77)"/><path class="cls-1" d="M719.59,66.61c-8.17-8.17-20.21-13.33-34.83-13.33-23,0-38,17-38,41.49,0,25.16,16.34,41.5,39.13,41.5,14.62,0,25.15-4.3,35.9-13.12v28.16c-11.82,7.1-24.08,9.47-37,9.47-40,0-66-27.09-66-66,0-39.13,27.09-66,66-66,12.9,0,24.51,2.58,34.83,8.6Z" transform="translate(-7.52 -28.77)"/><path class="cls-1" d="M744.53,30.92h27.3V134.76h50.1v23.86h-77.4Z" transform="translate(-7.52 -28.77)"/><path class="cls-1" d="M869.66,131.54l-9.89,27.08h-28.6l49.45-127.7h32.89l49.88,127.7H933.72l-9.89-27.08ZM897,57.36l-19.13,52h38Z" transform="translate(-7.52 -28.77)"/><path class="cls-2" d="M27.3,213.74H39.55l18.34,51.82H46.15L42.73,254.9H23.64l-3.51,10.66H8.8ZM26.59,246H39.86l-6.55-20.39Z" transform="translate(-7.52 -28.77)"/><path class="cls-2" d="M105.52,219.15a21.31,21.31,0,0,1,15.93-6.4q12.93,0,18.92,8.58a18.78,18.78,0,0,1,3.55,9.67H133.09a14.92,14.92,0,0,0-2.65-5.63q-2.9-3.37-8.58-3.37a10.58,10.58,0,0,0-9.13,4.76q-3.33,4.77-3.34,13.48t3.53,13.06a11,11,0,0,0,9,4.35q5.57,0,8.49-3.73a16.34,16.34,0,0,0,2.68-6h10.76a23.37,23.37,0,0,1-7.11,13.78Q131,267,122,267q-11.07,0-17.39-7.17t-6.33-19.76Q98.32,226.5,105.52,219.15Z" transform="translate(-7.52 -28.77)"/><path class="cls-2" d="M186.09,228a15.63,15.63,0,0,1,6.62,5.67,18.78,18.78,0,0,1,3,7.92,48.93,48.93,0,0,1,.33,7.61H168.18q.24,5.76,4,8.08a10.09,10.09,0,0,0,5.52,1.45,7.78,7.78,0,0,0,7.63-4.4h10.23c-.27,2.28-1.51,4.58-3.72,6.93q-5.15,5.58-14.41,5.59a20.86,20.86,0,0,1-13.5-4.72q-5.85-4.71-5.85-15.34,0-10,5.28-15.27t13.7-5.31A22,22,0,0,1,186.09,228Zm-15,8.66a10.34,10.34,0,0,0-2.67,5.93h17.26a8.36,8.36,0,0,0-2.67-6.06,8.82,8.82,0,0,0-5.94-2.06A7.94,7.94,0,0,0,171.1,236.67Z" transform="translate(-7.52 -28.77)"/><path class="cls-2" d="M241.42,229.43q3.77,3.12,3.76,10.32v25.81H234.92V242.25a10.61,10.61,0,0,0-.81-4.64c-1-2-2.84-3-5.58-3-3.37,0-5.69,1.45-6.95,4.33a15,15,0,0,0-1,5.83v20.75h-10V227.31h9.7v5.59a17.06,17.06,0,0,1,3.64-4.26,12.68,12.68,0,0,1,7.81-2.32A14.72,14.72,0,0,1,241.42,229.43Z" transform="translate(-7.52 -28.77)"/><path class="cls-2" d="M259.92,234.72v-7.13h5.34V216.9h9.92v10.69h6.22v7.13h-6.22V255q0,2.36.6,2.94c.39.39,1.61.58,3.65.58l1,0,1-.05v7.49l-4.74.17q-7.11.26-9.71-2.46c-1.12-1.15-1.69-2.91-1.69-5.31V234.72Z" transform="translate(-7.52 -28.77)"/><path class="cls-2" d="M322.17,228a15.63,15.63,0,0,1,6.62,5.67,18.78,18.78,0,0,1,3,7.92,48.93,48.93,0,0,1,.33,7.61H304.26q.24,5.76,4,8.08a10.09,10.09,0,0,0,5.52,1.45,7.78,7.78,0,0,0,7.63-4.4h10.23c-.27,2.28-1.51,4.58-3.72,6.93q-5.15,5.58-14.41,5.59a20.86,20.86,0,0,1-13.5-4.72q-5.85-4.71-5.85-15.34,0-10,5.28-15.27t13.7-5.31A22,22,0,0,1,322.17,228Zm-15,8.66a10.34,10.34,0,0,0-2.67,5.93h17.26a8.36,8.36,0,0,0-2.67-6.06,8.82,8.82,0,0,0-5.94-2.06A7.94,7.94,0,0,0,307.18,236.67Z" transform="translate(-7.52 -28.77)"/><path class="cls-2" d="M377.5,229.43q3.76,3.12,3.76,10.32v25.81H371V242.25a10.61,10.61,0,0,0-.81-4.64c-1-2-2.84-3-5.58-3-3.37,0-5.69,1.45-6.94,4.33a14.77,14.77,0,0,0-1,5.83v20.75h-10V227.31h9.7v5.59a17.06,17.06,0,0,1,3.64-4.26,12.68,12.68,0,0,1,7.81-2.32A14.72,14.72,0,0,1,377.5,229.43Z" transform="translate(-7.52 -28.77)"/><path class="cls-2" d="M430.84,229.43q3.77,3.12,3.76,10.32v25.81H424.34V242.25a10.61,10.61,0,0,0-.81-4.64q-1.45-3-5.58-3c-3.37,0-5.69,1.45-6.94,4.33a14.77,14.77,0,0,0-1,5.83v20.75H400V227.31h9.7v5.59a17.27,17.27,0,0,1,3.64-4.26,12.68,12.68,0,0,1,7.81-2.32A14.72,14.72,0,0,1,430.84,229.43Z" transform="translate(-7.52 -28.77)"/><path class="cls-2" d="M463.58,222.67H453.42v-9.25h10.16Zm-10.16,4.57h10.16v38.32H453.42Z" transform="translate(-7.52 -28.77)"/><path class="cls-2" d="M497.82,242.25a16.06,16.06,0,0,0,4-.88,3,3,0,0,0,2.16-2.85,3.37,3.37,0,0,0-1.65-3.25,10.47,10.47,0,0,0-4.87-.9q-3.6,0-5.09,1.76a7.22,7.22,0,0,0-1.43,3.52h-9.67a14.6,14.6,0,0,1,2.83-8.27q4-5.06,13.7-5.06a24.32,24.32,0,0,1,11.22,2.5q4.92,2.49,4.91,9.42v17.58c0,1.22,0,2.69.07,4.43a5.54,5.54,0,0,0,.6,2.67,3.54,3.54,0,0,0,1.48,1.16v1.48h-10.9a10.45,10.45,0,0,1-.63-2.18c-.12-.68-.22-1.46-.29-2.32a20.86,20.86,0,0,1-4.8,3.83,14.59,14.59,0,0,1-7.36,1.86,12.71,12.71,0,0,1-8.65-3q-3.4-3-3.41-8.42,0-7.06,5.49-10.23a24.47,24.47,0,0,1,8.86-2.46Zm6.13,4.67a11.06,11.06,0,0,1-1.95,1,15.8,15.8,0,0,1-2.69.69L497,249a14.84,14.84,0,0,0-4.6,1.37,4.57,4.57,0,0,0-2.37,4.25,4.43,4.43,0,0,0,1.45,3.71,5.48,5.48,0,0,0,3.51,1.14,10.49,10.49,0,0,0,6.05-1.89q2.78-1.9,2.88-6.93Z" transform="translate(-7.52 -28.77)"/><path class="cls-2" d="M542.28,265.56h-10V213.74h10Z" transform="translate(-7.52 -28.77)"/><path class="cls-2" d="M601.46,265.56H590.7V213.74h10.76Z" transform="translate(-7.52 -28.77)"/><path class="cls-2" d="M651,229.43q3.76,3.12,3.76,10.32v25.81H644.54V242.25a10.61,10.61,0,0,0-.81-4.64c-1-2-2.84-3-5.58-3-3.37,0-5.69,1.45-6.94,4.33a14.77,14.77,0,0,0-1,5.83v20.75h-10V227.31h9.7v5.59a17.06,17.06,0,0,1,3.64-4.26,12.68,12.68,0,0,1,7.81-2.32A14.72,14.72,0,0,1,651,229.43Z" transform="translate(-7.52 -28.77)"/><path class="cls-2" d="M683.78,222.67H673.62v-9.25h10.16Zm-10.16,4.57h10.16v38.32H673.62Z" transform="translate(-7.52 -28.77)"/><path class="cls-2" d="M698.9,234.72v-7.13h5.35V216.9h9.91v10.69h6.22v7.13h-6.22V255q0,2.36.6,2.94c.4.39,1.62.58,3.66.58l1,0,1-.05v7.49l-4.74.17q-7.11.26-9.7-2.46c-1.13-1.15-1.69-2.91-1.69-5.31V234.72Z" transform="translate(-7.52 -28.77)"/><path class="cls-2" d="M746.48,222.67H736.32v-9.25h10.16Zm-10.16,4.57h10.16v38.32H736.32Z" transform="translate(-7.52 -28.77)"/><path class="cls-2" d="M780.72,242.25a16.18,16.18,0,0,0,4-.88,3,3,0,0,0,2.16-2.85,3.36,3.36,0,0,0-1.66-3.25,10.4,10.4,0,0,0-4.86-.9q-3.6,0-5.1,1.76a7.31,7.31,0,0,0-1.42,3.52h-9.67a14.6,14.6,0,0,1,2.83-8.27q4-5.06,13.7-5.06a24.32,24.32,0,0,1,11.22,2.5q4.92,2.49,4.91,9.42v17.58c0,1.22,0,2.69.07,4.43a5.54,5.54,0,0,0,.6,2.67,3.54,3.54,0,0,0,1.48,1.16v1.48h-10.9a11.17,11.17,0,0,1-.64-2.18c-.11-.68-.21-1.46-.28-2.32a20.7,20.7,0,0,1-4.81,3.83,14.52,14.52,0,0,1-7.35,1.86,12.71,12.71,0,0,1-8.65-3q-3.4-3-3.41-8.42,0-7.06,5.49-10.23a24.47,24.47,0,0,1,8.85-2.46Zm6.13,4.67a11.42,11.42,0,0,1-2,1,15.8,15.8,0,0,1-2.69.69l-2.28.42a14.75,14.75,0,0,0-4.6,1.37,4.57,4.57,0,0,0-2.37,4.25,4.43,4.43,0,0,0,1.45,3.71,5.48,5.48,0,0,0,3.51,1.14,10.49,10.49,0,0,0,6.05-1.89c1.85-1.27,2.8-3.58,2.88-6.93Z" transform="translate(-7.52 -28.77)"/><path class="cls-2" d="M811,234.72v-7.13h5.34V216.9h9.92v10.69h6.22v7.13h-6.22V255c0,1.57.19,2.55.59,2.94s1.62.58,3.66.58l1,0,1-.05v7.49l-4.75.17q-7.1.26-9.7-2.46c-1.13-1.15-1.69-2.91-1.69-5.31V234.72Z" transform="translate(-7.52 -28.77)"/><path class="cls-2" d="M858.58,222.67H848.42v-9.25h10.16Zm-10.16,4.57h10.16v38.32H848.42Z" transform="translate(-7.52 -28.77)"/><path class="cls-2" d="M901.25,227.24H912l-13.84,38.32H887.61l-13.74-38.32h11.25l8,28.26Z" transform="translate(-7.52 -28.77)"/><path class="cls-2" d="M952,228a15.63,15.63,0,0,1,6.62,5.67,18.78,18.78,0,0,1,3.05,7.92,50,50,0,0,1,.34,7.61H934.12q.23,5.76,4,8.08a10.11,10.11,0,0,0,5.53,1.45,8.49,8.49,0,0,0,5.56-1.76,8.23,8.23,0,0,0,2.06-2.64H961.5c-.27,2.28-1.51,4.58-3.71,6.93q-5.16,5.58-14.42,5.59a20.86,20.86,0,0,1-13.5-4.72Q924,257.43,924,246.8q0-10,5.27-15.27T943,226.22A21.93,21.93,0,0,1,952,228Zm-15,8.66a10.34,10.34,0,0,0-2.67,5.93h17.26a8.36,8.36,0,0,0-2.67-6.06,8.78,8.78,0,0,0-5.94-2.06A8,8,0,0,0,937,236.67Z" transform="translate(-7.52 -28.77)"/></svg>