<svg id="Layer_1" data-name="Layer 1" xmlns="http://www.w3.org/2000/svg" viewBox="0 0 955.87 238.09"><defs><style>.cls-1{fill:#2774ae;}.cls-2{fill:#003b5c;}</style></defs><path class="cls-1" d="M74,28.77c37,0,66.43,27.09,66.43,66s-29.45,66-66.43,66-66.44-27.09-66.44-66S37,28.77,74,28.77Zm0,24.51C52,53.28,35.47,69.62,35.47,94.77S52,136.27,74,136.27s38.48-16.34,38.48-41.5S95.89,53.28,74,53.28Z" transform="translate(-7.52 -28.77)"/><path class="cls-1" d="M161,68.54c10.32-4.3,26-8,41.93-8,31.39,0,52.67,17.84,52.67,48.16,0,33.32-20,52-53.32,52a52.44,52.44,0,0,1-15.26-1.94v38.48H161Zm26,67.73a40.57,40.57,0,0,0,13.33,1.93c16.55,0,29-8.81,29-28.59,0-16.56-11-25.8-26.87-25.8-5.16,0-11.18.64-15.48,2.36Z" transform="translate(-7.52 -28.77)"/><path class="cls-1" d="M295.62,117.78v.43c1.93,13.54,15.26,20.42,28.16,20.42s22.58-3,32-8.6V152c-8.82,6.24-21.72,8.82-34.62,8.82-31.17,0-50.74-19.14-50.74-49,0-31.61,20-51.17,46.87-51.17,29.89,0,41.5,19.78,41.5,45.15v12Zm39.13-15.48c-.22-11.83-5.81-20.43-18.06-20.43-11.18,0-18.49,8-20.86,20.43Z" transform="translate(-7.52 -28.77)"/><path class="cls-1" d="M380.76,69a139.08,139.08,0,0,1,45.79-8.38c24.94,0,41.07,9.24,41.07,37.84v60.19h-26V100.15c0-10.75-5.8-16.34-17-16.34a61,61,0,0,0-18.06,2.79v72h-25.8Z" transform="translate(-7.52 -28.77)"/><path class="cls-1" d="M492.56,30.92h27.3v77.4c0,22.79,10.53,29.67,27.09,29.67a127.31,127.31,0,0,0,22.57-1.94V30.92h27.31V154.54c-11.4,3.44-34,6.24-49.88,6.24-29,0-54.39-11-54.39-46.87Z" transform="translate(-7.52 -28.77)"/><path class="cls-1" d="M719.59,66.61c-8.17-8.17-20.21-13.33-34.83-13.33-23,0-38,17-38,41.49,0,25.16,16.34,41.5,39.13,41.5,14.62,0,25.15-4.3,35.9-13.12v28.16c-11.82,7.1-24.08,9.47-37,9.47-40,0-66-27.09-66-66,0-39.13,27.09-66,66-66,12.9,0,24.51,2.58,34.83,8.6Z" transform="translate(-7.52 -28.77)"/><path class="cls-1" d="M744.53,30.92h27.3V134.76h50.1v23.86h-77.4Z" transform="translate(-7.52 -28.77)"/><path class="cls-1" d="M869.66,131.54l-9.89,27.08h-28.6l49.45-127.7h32.89l49.88,127.7H933.72l-9.89-27.08ZM897,57.36l-19.13,52h38Z" transform="translate(-7.52 -28.77)"/><path class="cls-2" d="M43.36,245.31q-4.11,3.42-11.73,3.43H21.89v16.82H12.17V218.77H32.26q6.95,0,11.08,3.62t4.13,11.21Q47.47,241.88,43.36,245.31ZM35.9,228.46a7.86,7.86,0,0,0-5.21-1.56h-8.8v13.77h8.8A7.49,7.49,0,0,0,35.9,239q1.85-1.68,1.85-5.33C37.75,231.23,37.13,229.49,35.9,228.46Z" transform="translate(-7.52 -28.77)"/><path class="cls-2" d="M71.2,244.51a14.22,14.22,0,0,0,3.62-.79,2.72,2.72,0,0,0,2-2.57,3,3,0,0,0-1.5-2.94,9.45,9.45,0,0,0-4.39-.81q-3.25,0-4.6,1.59A6.52,6.52,0,0,0,65,242.17H56.26a13.2,13.2,0,0,1,2.55-7.46q3.6-4.58,12.37-4.57a22.12,22.12,0,0,1,10.14,2.25q4.43,2.25,4.43,8.51v15.87q0,1.65.06,4a5,5,0,0,0,.54,2.42,3.25,3.25,0,0,0,1.33,1v1.34H77.84a10.89,10.89,0,0,1-.57-2c-.1-.61-.19-1.31-.25-2.1A18.52,18.52,0,0,1,72.68,265,13,13,0,0,1,66,266.64,11.48,11.48,0,0,1,58.23,264a9.54,9.54,0,0,1-3.08-7.6q0-6.38,5-9.23a22.11,22.11,0,0,1,8-2.23Zm5.53,4.23a9.83,9.83,0,0,1-1.75.87,15,15,0,0,1-2.43.62l-2.06.38a13.57,13.57,0,0,0-4.16,1.24,4.12,4.12,0,0,0-2.13,3.84A4,4,0,0,0,65.5,259a5,5,0,0,0,3.18,1,9.5,9.5,0,0,0,5.46-1.72c1.66-1.14,2.53-3.22,2.59-6.25Z" transform="translate(-7.52 -28.77)"/><path class="cls-2" d="M103.59,254.51a6.08,6.08,0,0,0,1.24,3.43q1.69,1.81,6.25,1.81a9.69,9.69,0,0,0,4.26-.79,2.66,2.66,0,0,0,.31-4.7q-1.28-.8-9.46-2.73-5.91-1.46-8.31-3.65a7.91,7.91,0,0,1-2.42-6.22,10.8,10.8,0,0,1,3.77-8.24Q103,230,109.84,230q6.5,0,10.58,2.58t4.69,8.94h-9a5.3,5.3,0,0,0-1-2.76q-1.5-1.85-5.1-1.84a7.27,7.27,0,0,0-4.21.92,2.64,2.64,0,0,0-1.26,2.16,2.37,2.37,0,0,0,1.34,2.25c.89.49,4,1.32,9.44,2.51,3.6.84,6.31,2.12,8.1,3.84a8.69,8.69,0,0,1,2.67,6.5,10.53,10.53,0,0,1-3.83,8.4q-3.84,3.25-11.85,3.25-8.17,0-12.07-3.44a11.22,11.22,0,0,1-3.89-8.78Z" transform="translate(-7.52 -28.77)"/><path class="cls-2" d="M132.1,237.72v-6.44h4.82v-9.65h9v9.65h5.62v6.44h-5.62V256c0,1.42.18,2.3.54,2.65s1.46.53,3.3.53l.87,0,.91-.05v6.76l-4.29.16q-6.4.23-8.76-2.22a6.63,6.63,0,0,1-1.52-4.79v-21.3Z" transform="translate(-7.52 -28.77)"/><path class="cls-2" d="M186.4,223.66a19.27,19.27,0,0,1,14.38-5.77q11.68,0,17.09,7.74a17,17,0,0,1,3.2,8.73h-9.78a13.36,13.36,0,0,0-2.39-5.08q-2.61-3-7.74-3.05a9.55,9.55,0,0,0-8.24,4.3q-3,4.31-3,12.18t3.18,11.79a10,10,0,0,0,8.09,3.92,9.18,9.18,0,0,0,7.67-3.37,14.69,14.69,0,0,0,2.42-5.43H221a21,21,0,0,1-6.42,12.45q-5.16,4.79-13.23,4.79-10,0-15.7-6.48t-5.72-17.83Q179.9,230.3,186.4,223.66Z" transform="translate(-7.52 -28.77)"/><path class="cls-2" d="M253.61,231.66a14,14,0,0,1,6,5.12,17,17,0,0,1,2.76,7.15,45.26,45.26,0,0,1,.3,6.87h-25.2q.21,5.2,3.62,7.3a9.16,9.16,0,0,0,5,1.3,7,7,0,0,0,6.88-4h9.23a11.26,11.26,0,0,1-3.35,6.25q-4.65,5.06-13,5.05a18.85,18.85,0,0,1-12.19-4.26q-5.28-4.25-5.28-13.85,0-9,4.77-13.78a16.66,16.66,0,0,1,12.37-4.8A19.67,19.67,0,0,1,253.61,231.66Zm-13.53,7.82a9.37,9.37,0,0,0-2.41,5.35h15.59a7.56,7.56,0,0,0-2.41-5.46,7.91,7.91,0,0,0-5.37-1.87A7.17,7.17,0,0,0,240.08,239.48Z" transform="translate(-7.52 -28.77)"/><path class="cls-2" d="M298,233q3.4,2.81,3.4,9.31v23.3h-9.27V244.51a9.74,9.74,0,0,0-.72-4.19q-1.33-2.65-5-2.66a6.24,6.24,0,0,0-6.27,3.9,13.47,13.47,0,0,0-.89,5.27v18.73h-9V231H279v5a15.11,15.11,0,0,1,3.29-3.84,11.34,11.34,0,0,1,7-2.09A13.22,13.22,0,0,1,298,233Z" transform="translate(-7.52 -28.77)"/><path class="cls-2" d="M309.22,237.72v-6.44H314v-9.65h9v9.65h5.61v6.44H323V256c0,1.42.17,2.3.53,2.65s1.46.53,3.31.53l.87,0,.9-.05v6.76l-4.28.16q-6.42.23-8.76-2.22A6.59,6.59,0,0,1,314,259v-21.3Z" transform="translate(-7.52 -28.77)"/><path class="cls-2" d="M359.89,231.66a14.09,14.09,0,0,1,6,5.12,17.11,17.11,0,0,1,2.75,7.15,42.76,42.76,0,0,1,.3,6.87H343.73q.21,5.2,3.61,7.3a9.2,9.2,0,0,0,5,1.3,7.63,7.63,0,0,0,5-1.59,7.31,7.31,0,0,0,1.86-2.38h9.24a11.26,11.26,0,0,1-3.35,6.25q-4.65,5.06-13,5.05a18.84,18.84,0,0,1-12.18-4.26q-5.28-4.25-5.28-13.85,0-9,4.76-13.78a16.67,16.67,0,0,1,12.37-4.8A19.72,19.72,0,0,1,359.89,231.66Zm-13.53,7.82a9.37,9.37,0,0,0-2.41,5.35h15.58a7.52,7.52,0,0,0-2.41-5.46,7.89,7.89,0,0,0-5.36-1.87A7.17,7.17,0,0,0,346.36,239.48Z" transform="translate(-7.52 -28.77)"/><path class="cls-2" d="M404.32,233q3.39,2.81,3.39,9.31v23.3h-9.26V244.51a9.57,9.57,0,0,0-.73-4.19q-1.32-2.65-5-2.66a6.26,6.26,0,0,0-6.27,3.9,13.48,13.48,0,0,0-.88,5.27v18.73h-9V231h8.76v5a15.31,15.31,0,0,1,3.29-3.84,11.35,11.35,0,0,1,7.05-2.09A13.24,13.24,0,0,1,404.32,233Z" transform="translate(-7.52 -28.77)"/><path class="cls-2" d="M447,233q3.39,2.81,3.39,9.31v23.3h-9.26V244.51a9.72,9.72,0,0,0-.73-4.19q-1.32-2.65-5-2.66a6.26,6.26,0,0,0-6.27,3.9,13.48,13.48,0,0,0-.88,5.27v18.73h-9.05V231h8.76v5a15.31,15.31,0,0,1,3.29-3.84,11.35,11.35,0,0,1,7-2.09A13.24,13.24,0,0,1,447,233Z" transform="translate(-7.52 -28.77)"/><path class="cls-2" d="M471,226.84h-9.17v-8.35H471ZM461.81,231H471v34.6h-9.17Z" transform="translate(-7.52 -28.77)"/><path class="cls-2" d="M496.37,244.51a14.23,14.23,0,0,0,3.61-.79,2.72,2.72,0,0,0,1.95-2.57,3,3,0,0,0-1.5-2.94,9.42,9.42,0,0,0-4.39-.81c-2.16,0-3.7.53-4.6,1.59a6.62,6.62,0,0,0-1.29,3.18h-8.72a13.2,13.2,0,0,1,2.55-7.46q3.6-4.58,12.36-4.57a22.07,22.07,0,0,1,10.14,2.25q4.42,2.25,4.43,8.51v15.87q0,1.65.06,4a5.23,5.23,0,0,0,.54,2.42,3.22,3.22,0,0,0,1.34,1v1.34H503a9.48,9.48,0,0,1-.57-2c-.11-.61-.19-1.31-.26-2.1a18.32,18.32,0,0,1-4.34,3.46,13,13,0,0,1-6.64,1.69,11.43,11.43,0,0,1-7.8-2.69c-2.06-1.78-3.08-4.32-3.08-7.6q0-6.38,4.95-9.23a22.17,22.17,0,0,1,8-2.23Zm5.53,4.23a9.91,9.91,0,0,1-1.76.87,15,15,0,0,1-2.43.62l-2,.38a13.48,13.48,0,0,0-4.16,1.24,4.11,4.11,0,0,0-2.14,3.84,4,4,0,0,0,1.31,3.34,4.93,4.93,0,0,0,3.17,1,9.45,9.45,0,0,0,5.46-1.72c1.67-1.14,2.53-3.22,2.6-6.25Z" transform="translate(-7.52 -28.77)"/><path class="cls-2" d="M531,265.56h-9.05V218.77H531Z" transform="translate(-7.52 -28.77)"/><path class="cls-2" d="M599,227.06H574.28V237H597v8.13H574.28v12h25.89v8.41H564.72V218.77H599Z" transform="translate(-7.52 -28.77)"/><path class="cls-2" d="M631.3,231H641l-12.49,34.6H619L606.58,231h10.15l7.21,25.52Z" transform="translate(-7.52 -28.77)"/><path class="cls-2" d="M671.61,231.66a14.06,14.06,0,0,1,6,5.12,17,17,0,0,1,2.76,7.15,45.26,45.26,0,0,1,.3,6.87h-25.2q.21,5.2,3.62,7.3a9.16,9.16,0,0,0,5,1.3,7,7,0,0,0,6.88-4h9.24a11.35,11.35,0,0,1-3.36,6.25q-4.65,5.06-13,5.05a18.85,18.85,0,0,1-12.19-4.26q-5.28-4.25-5.28-13.85,0-9,4.77-13.78a16.67,16.67,0,0,1,12.37-4.8A19.75,19.75,0,0,1,671.61,231.66Zm-13.54,7.82a9.37,9.37,0,0,0-2.41,5.35h15.59a7.56,7.56,0,0,0-2.41-5.46,7.9,7.9,0,0,0-5.37-1.87A7.17,7.17,0,0,0,658.07,239.48Z" transform="translate(-7.52 -28.77)"/><path class="cls-2" d="M716,233q3.4,2.81,3.4,9.31v23.3h-9.27V244.51a9.74,9.74,0,0,0-.72-4.19q-1.32-2.65-5-2.66a6.24,6.24,0,0,0-6.27,3.9,13.48,13.48,0,0,0-.88,5.27v18.73h-9V231H697v5a15.11,15.11,0,0,1,3.29-3.84,11.34,11.34,0,0,1,7-2.09A13.22,13.22,0,0,1,716,233Z" transform="translate(-7.52 -28.77)"/><path class="cls-2" d="M727.21,237.72v-6.44H732v-9.65h9v9.65h5.61v6.44H741V256c0,1.42.18,2.3.54,2.65s1.46.53,3.3.53l.87,0,.9-.05v6.76l-4.28.16q-6.42.23-8.76-2.22A6.59,6.59,0,0,1,732,259v-21.3Z" transform="translate(-7.52 -28.77)"/><path class="cls-2" d="M762.35,254.51a6.08,6.08,0,0,0,1.24,3.43q1.7,1.81,6.25,1.81a9.69,9.69,0,0,0,4.26-.79,2.66,2.66,0,0,0,.31-4.7q-1.27-.8-9.46-2.73c-3.94-1-6.7-2.19-8.31-3.65a7.9,7.9,0,0,1-2.41-6.22,10.79,10.79,0,0,1,3.76-8.24Q761.77,230,768.6,230q6.49,0,10.58,2.58t4.69,8.94h-9a5.3,5.3,0,0,0-1-2.76q-1.5-1.85-5.09-1.84a7.28,7.28,0,0,0-4.22.92,2.64,2.64,0,0,0-1.26,2.16,2.37,2.37,0,0,0,1.34,2.25c.89.49,4,1.32,9.44,2.51q5.41,1.26,8.11,3.84a8.72,8.72,0,0,1,2.66,6.5,10.53,10.53,0,0,1-3.83,8.4c-2.56,2.17-6.5,3.25-11.85,3.25s-9.47-1.15-12.07-3.44a11.22,11.22,0,0,1-3.89-8.78Z" transform="translate(-7.52 -28.77)"/></svg>