<svg id="Layer_1" data-name="Layer 1" xmlns="http://www.w3.org/2000/svg" viewBox="0 0 800 172"><defs><style>.cls-1{fill:#c3d7ee;}.cls-2{fill:#8bb8e8;}.cls-3{fill:#2774ae;}.cls-4{fill:#003b5c;}</style></defs><rect class="cls-1" width="800" height="172"/><g id="art"><polygon class="cls-2" points="113.37 98.09 111 26.22 94.34 33.51 96.23 91 96.23 91 57.96 131.91 65.53 149.21 113.37 98.09"/><path class="cls-3" d="M-10.19-23.86"/><polyline class="cls-3" points="60.38 0 94.34 33.51 111 26.22 84.44 0"/><polyline class="cls-3" points="0 149.62 65.53 149.21 57.96 131.91 0 132.27"/></g><path class="cls-4" d="M193.88,39.8v6.12H183.54V74.35h-7.26V45.92H165.89V39.8Z"/><path class="cls-4" d="M223.86,71.27q-3.92,4-11.32,4t-11.33-4Q196,66.34,196,57q0-9.48,5.25-14.25,3.91-4,11.33-4t11.32,4q5.22,4.77,5.22,14.25Q229.08,66.33,223.86,71.27ZM219.34,66q2.52-3.15,2.52-9c0-3.87-.84-6.87-2.52-9a8.23,8.23,0,0,0-6.8-3.18A8.37,8.37,0,0,0,205.69,48q-2.55,3.16-2.55,9t2.55,9a8.35,8.35,0,0,0,6.85,3.17A8.25,8.25,0,0,0,219.34,66Z"/><path class="cls-4" d="M257.51,39.8h10.38V74.35h-6.72V51c0-.67,0-1.62,0-2.83s0-2.14,0-2.8l-6.54,29h-7l-6.5-29c0,.66,0,1.59,0,2.8s0,2.16,0,2.83V74.35h-6.73V39.8H245L251.27,67Z"/><path class="cls-4" d="M300.12,45.92H281.84v7.33h16.78v6H281.84v8.88H301v6.22H274.79V39.8h25.33Z"/><path class="cls-4" d="M308.37,49.78h7.1v7h-7.1Zm0,17.56h7.1v7h-7.1Z"/><path class="cls-4" d="M361,39.8v6.12H350.68V74.35h-7.27V45.92H333V39.8Z"/><path class="cls-4" d="M382.46,71.22q-3.24,4-9.82,4t-9.82-4a14.77,14.77,0,0,1-3.24-9.61A14.86,14.86,0,0,1,362.82,52Q366,48,372.64,48T382.46,52a14.91,14.91,0,0,1,3.23,9.58A14.82,14.82,0,0,1,382.46,71.22Zm-5.35-3.69a9.66,9.66,0,0,0,1.57-5.92,9.6,9.6,0,0,0-1.57-5.91,5.29,5.29,0,0,0-4.5-2.07,5.35,5.35,0,0,0-4.51,2.07,9.6,9.6,0,0,0-1.58,5.91,9.65,9.65,0,0,0,1.58,5.92,5.33,5.33,0,0,0,4.51,2.08A5.27,5.27,0,0,0,377.11,67.53Z"/><path class="cls-4" d="M402.52,48.8h6.77l3.89,18.4,4-18.4h7l-7.41,25.55h-6.86l-4-18.61-4.06,18.61h-6.93L387.68,48.8h7.18l4,18.33Z"/><path class="cls-4" d="M437.93,58.81a10.8,10.8,0,0,0,2.66-.59,2,2,0,0,0,1.45-1.9,2.24,2.24,0,0,0-1.11-2.17,7.12,7.12,0,0,0-3.24-.59,4.27,4.27,0,0,0-3.4,1.17,4.82,4.82,0,0,0-1,2.34h-6.45a9.83,9.83,0,0,1,1.89-5.51q2.66-3.37,9.13-3.37a16.32,16.32,0,0,1,7.49,1.66c2.18,1.11,3.27,3.21,3.27,6.28V67.85c0,.82,0,1.8,0,3a3.77,3.77,0,0,0,.4,1.78,2.4,2.4,0,0,0,1,.77v1h-7.27a7.79,7.79,0,0,1-.42-1.46c-.08-.45-.14-1-.19-1.54A13.72,13.72,0,0,1,439,73.9a9.68,9.68,0,0,1-4.91,1.24,8.47,8.47,0,0,1-5.76-2,7,7,0,0,1-2.28-5.61,7.27,7.27,0,0,1,3.66-6.82,16.33,16.33,0,0,1,5.91-1.64ZM442,61.92a7.8,7.8,0,0,1-1.29.65,11.67,11.67,0,0,1-1.8.45l-1.52.29a10,10,0,0,0-3.07.91,3.05,3.05,0,0,0-1.58,2.84,3,3,0,0,0,1,2.47,3.63,3.63,0,0,0,2.34.76,7,7,0,0,0,4-1.27c1.23-.84,1.86-2.38,1.91-4.61Z"/><path class="cls-4" d="M468.7,48.2l.57,0v6.84c-.42,0-.8-.08-1.13-.09l-.79,0c-2.69,0-4.49.88-5.42,2.63a10.27,10.27,0,0,0-.77,4.54V74.35h-6.73V48.8h6.38v4.45a14.18,14.18,0,0,1,2.69-3.49,7.33,7.33,0,0,1,4.88-1.57Z"/><path class="cls-4" d="M486.73,49.21A8.16,8.16,0,0,1,489.66,52V39.85h6.77v34.5h-6.49V70.81a9.44,9.44,0,0,1-3.26,3.3,9.1,9.1,0,0,1-4.54,1,9.48,9.48,0,0,1-7.54-3.62,13.89,13.89,0,0,1-3.06-9.29q0-6.54,3-10.29a9.82,9.82,0,0,1,8.06-3.75A8.23,8.23,0,0,1,486.73,49.21Zm1.64,18.2A9.29,9.29,0,0,0,489.85,62c0-3.13-.79-5.36-2.37-6.71A5.1,5.1,0,0,0,484.11,54a4.7,4.7,0,0,0-4.31,2.22,10.31,10.31,0,0,0-1.37,5.5,10.18,10.18,0,0,0,1.4,5.66,4.73,4.73,0,0,0,4.23,2.12A4.94,4.94,0,0,0,488.37,67.41Z"/><path class="cls-4" d="M526,58.81a11,11,0,0,0,2.67-.59,2,2,0,0,0,1.44-1.9A2.24,2.24,0,0,0,529,54.15a7.12,7.12,0,0,0-3.24-.59,4.27,4.27,0,0,0-3.4,1.17,4.91,4.91,0,0,0-1,2.34h-6.44a9.75,9.75,0,0,1,1.88-5.51q2.66-3.37,9.13-3.37a16.29,16.29,0,0,1,7.49,1.66c2.18,1.11,3.27,3.21,3.27,6.28V67.85c0,.82,0,1.8,0,3a3.79,3.79,0,0,0,.39,1.78,2.4,2.4,0,0,0,1,.77v1h-7.27a7.79,7.79,0,0,1-.42-1.46c-.08-.45-.14-1-.19-1.54a13.51,13.51,0,0,1-3.2,2.55,9.68,9.68,0,0,1-4.91,1.24,8.47,8.47,0,0,1-5.76-2,7,7,0,0,1-2.27-5.61,7.28,7.28,0,0,1,3.65-6.82,16.33,16.33,0,0,1,5.91-1.64ZM530,61.92a7.8,7.8,0,0,1-1.29.65A11.67,11.67,0,0,1,527,63l-1.52.29a10,10,0,0,0-3.07.91,3,3,0,0,0-1.57,2.84,3,3,0,0,0,1,2.47,3.63,3.63,0,0,0,2.34.76,7,7,0,0,0,4-1.27Q530,67.76,530,64.41Z"/><path class="cls-4" d="M563.14,50.26q2.5,2.09,2.5,6.88V74.35H558.8V58.81a7.26,7.26,0,0,0-.53-3.1,3.78,3.78,0,0,0-3.73-2,4.61,4.61,0,0,0-4.63,2.89,10,10,0,0,0-.65,3.89V74.35h-6.68V48.85h6.47v3.72a11.32,11.32,0,0,1,2.43-2.83,8.35,8.35,0,0,1,5.2-1.55A9.84,9.84,0,0,1,563.14,50.26Z"/><path class="cls-4" d="M612.33,71.27q-3.92,4-11.32,4t-11.32-4q-5.25-4.93-5.25-14.25,0-9.48,5.25-14.25,3.91-4,11.32-4t11.32,4q5.24,4.77,5.23,14.25Q617.56,66.33,612.33,71.27ZM607.82,66q2.52-3.15,2.52-9c0-3.87-.84-6.87-2.52-9A8.23,8.23,0,0,0,601,44.86,8.35,8.35,0,0,0,594.17,48q-2.56,3.16-2.56,9t2.56,9A8.34,8.34,0,0,0,601,69.19,8.25,8.25,0,0,0,607.82,66Z"/><path class="cls-4" d="M644,51.54q3.12,3.3,3.13,9.7,0,6.75-3.06,10.29a9.92,9.92,0,0,1-7.87,3.54,8.27,8.27,0,0,1-5.09-1.52A9.79,9.79,0,0,1,629,71.09V84.4h-6.61V48.8h6.4v3.77A10.57,10.57,0,0,1,631.05,50a8.52,8.52,0,0,1,5.33-1.71A10.11,10.11,0,0,1,644,51.54Zm-5.13,4.81a4.74,4.74,0,0,0-4.41-2.28,5,5,0,0,0-5.05,3.45,13,13,0,0,0-.71,4.64c0,3,.8,5,2.39,6.26a5.52,5.52,0,0,0,3.37,1,4.89,4.89,0,0,0,4.3-2.16,10,10,0,0,0,1.48-5.74A9.92,9.92,0,0,0,638.88,56.35Z"/><path class="cls-4" d="M668.5,49.32a10.27,10.27,0,0,1,4.41,3.78,12.55,12.55,0,0,1,2,5.28,34.29,34.29,0,0,1,.22,5.07H656.56q.15,3.84,2.67,5.39a6.79,6.79,0,0,0,3.68,1,5.66,5.66,0,0,0,3.71-1.17A5.75,5.75,0,0,0,668,66.87h6.82a8.41,8.41,0,0,1-2.48,4.62q-3.44,3.72-9.61,3.72a14,14,0,0,1-9-3.14q-3.9-3.15-3.9-10.23,0-6.63,3.52-10.18a12.33,12.33,0,0,1,9.14-3.54A14.56,14.56,0,0,1,668.5,49.32Zm-10,5.77A6.94,6.94,0,0,0,656.72,59h11.51a5.57,5.57,0,0,0-1.78-4,5.87,5.87,0,0,0-4-1.37A5.28,5.28,0,0,0,658.5,55.09Z"/><path class="cls-4" d="M699.14,50.26c1.68,1.39,2.51,3.68,2.51,6.88V74.35h-6.84V58.81a7.1,7.1,0,0,0-.54-3.1,3.76,3.76,0,0,0-3.72-2,4.61,4.61,0,0,0-4.63,2.89,10,10,0,0,0-.65,3.89V74.35h-6.68V48.85h6.47v3.72a10.92,10.92,0,0,1,2.43-2.83,8.33,8.33,0,0,1,5.2-1.55A9.79,9.79,0,0,1,699.14,50.26Z"/><path class="cls-4" d="M204.13,97.4h10.39v34.54h-6.73V108.58c0-.67,0-1.62,0-2.83s0-2.14,0-2.8l-6.55,29h-7l-6.5-29c0,.66,0,1.59,0,2.8s0,2.16,0,2.83v23.36h-6.73V97.4H191.6l6.29,27.16Z"/><path class="cls-4" d="M242,128.82q-3.24,4-9.82,4t-9.82-4a15.87,15.87,0,0,1,0-19.19q3.24-4,9.82-4t9.82,4a15.83,15.83,0,0,1,0,19.19Zm-5.34-3.69a11.93,11.93,0,0,0,0-11.83,5.94,5.94,0,0,0-9,0,9.54,9.54,0,0,0-1.59,5.91,9.61,9.61,0,0,0,1.59,5.92,5.92,5.92,0,0,0,9,0Z"/><path class="cls-4" d="M270.58,107.86q2.51,2.08,2.51,6.88v17.2h-6.85V116.41a7.26,7.26,0,0,0-.53-3.1,3.77,3.77,0,0,0-3.73-2,4.62,4.62,0,0,0-4.63,2.89,10,10,0,0,0-.65,3.89v13.82H250v-25.5h6.47v3.73a11.58,11.58,0,0,1,2.43-2.84,8.4,8.4,0,0,1,5.2-1.54A9.84,9.84,0,0,1,270.58,107.86Z"/><path class="cls-4" d="M300.6,128.82q-3.23,4-9.82,4t-9.82-4a15.87,15.87,0,0,1,0-19.19q3.24-4,9.82-4t9.82,4a15.83,15.83,0,0,1,0,19.19Zm-5.34-3.69a11.93,11.93,0,0,0,0-11.83,5.94,5.94,0,0,0-9,0,9.54,9.54,0,0,0-1.59,5.91,9.61,9.61,0,0,0,1.59,5.92,5.92,5.92,0,0,0,9,0Z"/><path class="cls-4" d="M321.25,106.37a8,8,0,0,1,3.94,3.71V106.4h6.51v24.23q0,5-1.66,7.45-2.87,4.32-11,4.32a14.93,14.93,0,0,1-8-1.92,7.12,7.12,0,0,1-3.42-5.75h7.26a3,3,0,0,0,.92,1.69,5.62,5.62,0,0,0,3.63.91c2.41,0,4-.8,4.83-2.41a12.24,12.24,0,0,0,.79-5.2v-1.64a8.13,8.13,0,0,1-2.06,2.46,8.32,8.32,0,0,1-5.18,1.52A9.78,9.78,0,0,1,310,128.6q-2.94-3.45-2.94-9.36a15.75,15.75,0,0,1,2.83-9.57,9.34,9.34,0,0,1,8-3.88A8.75,8.75,0,0,1,321.25,106.37Zm2.28,18.32q1.61-1.77,1.61-5.64a8.65,8.65,0,0,0-1.53-5.53,5,5,0,0,0-4.09-1.9,4.84,4.84,0,0,0-4.84,3.31,11.9,11.9,0,0,0-.7,4.33,9.93,9.93,0,0,0,.75,4,4.87,4.87,0,0,0,4.86,3.23A5.12,5.12,0,0,0,323.53,124.69Z"/><path class="cls-4" d="M352.13,105.8l.57,0v6.85c-.42-.05-.79-.08-1.12-.1l-.8,0q-4,0-5.41,2.63a10.11,10.11,0,0,0-.78,4.54v12.21h-6.72V106.4h6.37v4.45a13.92,13.92,0,0,1,2.7-3.49,7.31,7.31,0,0,1,4.87-1.57Z"/><path class="cls-4" d="M366.74,116.41a10.8,10.8,0,0,0,2.66-.59,2,2,0,0,0,1.44-1.9,2.24,2.24,0,0,0-1.1-2.17,7,7,0,0,0-3.24-.59,4.26,4.26,0,0,0-3.4,1.17,4.82,4.82,0,0,0-1,2.34H355.7a9.75,9.75,0,0,1,1.89-5.51q2.66-3.37,9.13-3.37a16.32,16.32,0,0,1,7.49,1.66c2.18,1.11,3.27,3.21,3.27,6.28v11.72c0,.81,0,1.8,0,3a3.77,3.77,0,0,0,.4,1.78,2.4,2.4,0,0,0,1,.77v1h-7.27a7.71,7.71,0,0,1-.42-1.45c-.08-.45-.14-1-.19-1.55a13.76,13.76,0,0,1-3.2,2.56,9.71,9.71,0,0,1-4.91,1.24,8.45,8.45,0,0,1-5.76-2,7,7,0,0,1-2.28-5.61,7.27,7.27,0,0,1,3.66-6.82,16.13,16.13,0,0,1,5.91-1.64Zm4.08,3.11a7.51,7.51,0,0,1-1.3.65,11.2,11.2,0,0,1-1.79.45l-1.52.29a10,10,0,0,0-3.07.91,3.05,3.05,0,0,0-1.58,2.84,2.94,2.94,0,0,0,1,2.47,3.63,3.63,0,0,0,2.34.76,6.93,6.93,0,0,0,4-1.27q1.85-1.26,1.92-4.61Z"/><path class="cls-4" d="M404.8,109.14q3.12,3.3,3.12,9.7,0,6.75-3.05,10.29a9.92,9.92,0,0,1-7.87,3.54,8.32,8.32,0,0,1-5.1-1.52,10.37,10.37,0,0,1-2.17-2.46V142h-6.61V106.4h6.4v3.77a11,11,0,0,1,2.31-2.62,8.58,8.58,0,0,1,5.34-1.72A10.13,10.13,0,0,1,404.8,109.14Zm-5.13,4.8a4.77,4.77,0,0,0-4.42-2.27,5,5,0,0,0-5,3.45,13,13,0,0,0-.71,4.64q0,4.45,2.39,6.25a5.45,5.45,0,0,0,3.36,1.06,4.89,4.89,0,0,0,4.3-2.16,11.3,11.3,0,0,0,.12-11Z"/><path class="cls-4" d="M431,106.54a7.5,7.5,0,0,1,3.17,2.51,6.81,6.81,0,0,1,1.28,2.94,37.64,37.64,0,0,1,.23,4.94v15h-6.82V116.39a6.81,6.81,0,0,0-.7-3.33,3.49,3.49,0,0,0-3.44-1.79,4.73,4.73,0,0,0-4,1.77,8.17,8.17,0,0,0-1.36,5.06v13.84h-6.68V97.51h6.68V109.7a8.1,8.1,0,0,1,3.35-3.1,9.37,9.37,0,0,1,4-.88A10.75,10.75,0,0,1,431,106.54Z"/><path class="cls-4" d="M481.38,103.51H463.09v7.34h16.79v6H463.09v8.88h19.13v6.21H456V97.4h25.34Z"/><path class="cls-4" d="M502.59,115.56a6,6,0,0,0-1-2.58,4,4,0,0,0-3.5-1.54,4.61,4.61,0,0,0-4.63,3.35,13.88,13.88,0,0,0-.65,4.72,12.78,12.78,0,0,0,.65,4.51,4.47,4.47,0,0,0,4.51,3.19,4,4,0,0,0,3.34-1.27,6.23,6.23,0,0,0,1.2-3.28h6.82a11.16,11.16,0,0,1-2.21,5.77q-3.13,4.38-9.31,4.38t-9.08-3.65a14.78,14.78,0,0,1-2.91-9.49q0-6.57,3.22-10.23a11.19,11.19,0,0,1,8.86-3.65,13.4,13.4,0,0,1,7.87,2.15c2.05,1.44,3.25,4,3.63,7.62Z"/><path class="cls-4" d="M535.3,128.82q-3.22,4-9.82,4t-9.82-4a15.87,15.87,0,0,1,0-19.19q3.24-4,9.82-4t9.82,4a15.83,15.83,0,0,1,0,19.19ZM530,125.13a9.68,9.68,0,0,0,1.57-5.92A9.6,9.6,0,0,0,530,113.3a5.94,5.94,0,0,0-9,0,9.54,9.54,0,0,0-1.58,5.91,9.61,9.61,0,0,0,1.58,5.92,5.92,5.92,0,0,0,9,0Z"/><path class="cls-4" d="M548.5,123.79a4.43,4.43,0,0,0,.92,2.53c.83.89,2.37,1.34,4.61,1.34a7.1,7.1,0,0,0,3.15-.59,2,2,0,0,0,.22-3.47q-.93-.59-7-2c-2.91-.71-4.95-1.61-6.14-2.69a5.82,5.82,0,0,1-1.78-4.59,8,8,0,0,1,2.78-6.09q2.79-2.53,7.84-2.54a14.46,14.46,0,0,1,7.81,1.91q3,1.9,3.46,6.6h-6.68a3.93,3.93,0,0,0-.73-2,4.57,4.57,0,0,0-3.76-1.36,5.42,5.42,0,0,0-3.11.68,1.94,1.94,0,0,0-.93,1.59,1.75,1.75,0,0,0,1,1.67,43,43,0,0,0,7,1.85,12.65,12.65,0,0,1,6,2.84,6.4,6.4,0,0,1,2,4.8,7.75,7.75,0,0,1-2.83,6.2c-1.88,1.6-4.8,2.4-8.74,2.4s-7-.85-8.92-2.54a8.3,8.3,0,0,1-2.87-6.48Z"/><path class="cls-4" d="M571,136.84l.85,0a10.42,10.42,0,0,0,1.87-.07,3.35,3.35,0,0,0,1.5-.54,3.59,3.59,0,0,0,1.09-1.66,4.16,4.16,0,0,0,.44-1.55l-9.39-26.67h7.43l5.58,18.84,5.27-18.84h7.1L584,131.52q-2.54,7.28-4,9t-5.92,1.75h-1.43l-1.62-.08Z"/><path class="cls-4" d="M601.89,123.79a4.43,4.43,0,0,0,.92,2.53c.83.89,2.37,1.34,4.61,1.34a7.1,7.1,0,0,0,3.15-.59,2,2,0,0,0,.22-3.47q-.93-.59-7-2c-2.91-.71-4.95-1.61-6.14-2.69a5.82,5.82,0,0,1-1.78-4.59,8,8,0,0,1,2.78-6.09q2.79-2.53,7.84-2.54a14.46,14.46,0,0,1,7.81,1.91q3,1.9,3.46,6.6H611.1a3.93,3.93,0,0,0-.73-2,4.57,4.57,0,0,0-3.76-1.36,5.44,5.44,0,0,0-3.11.68,1.94,1.94,0,0,0-.93,1.59,1.75,1.75,0,0,0,1,1.67,43,43,0,0,0,7,1.85,12.74,12.74,0,0,1,6,2.84,6.43,6.43,0,0,1,2,4.8,7.75,7.75,0,0,1-2.83,6.2c-1.88,1.6-4.8,2.4-8.74,2.4s-7-.85-8.92-2.54a8.3,8.3,0,0,1-2.87-6.48Z"/><path class="cls-4" d="M620.78,111.39v-4.76h3.56V99.51H631v7.12h4.15v4.76H631v13.5a3.08,3.08,0,0,0,.4,2,4.51,4.51,0,0,0,2.44.38h.64l.67,0v5l-3.16.12q-4.74.16-6.47-1.64a4.9,4.9,0,0,1-1.13-3.54V111.39Z"/><path class="cls-4" d="M656,106.92a10.32,10.32,0,0,1,4.41,3.77,12.52,12.52,0,0,1,2,5.29,33,33,0,0,1,.22,5.07H644.1q.17,3.84,2.67,5.39a6.8,6.8,0,0,0,3.69,1,5.68,5.68,0,0,0,3.71-1.17,5.88,5.88,0,0,0,1.37-1.76h6.82a8.35,8.35,0,0,1-2.48,4.61q-3.43,3.73-9.61,3.73a14,14,0,0,1-9-3.14q-3.9-3.15-3.89-10.23,0-6.64,3.51-10.18a12.34,12.34,0,0,1,9.14-3.54A14.53,14.53,0,0,1,656,106.92Zm-10,5.77a6.93,6.93,0,0,0-1.77,4h11.5a5.57,5.57,0,0,0-1.78-4,5.82,5.82,0,0,0-4-1.37A5.29,5.29,0,0,0,646,112.69Z"/><path class="cls-4" d="M698,106.49a7.43,7.43,0,0,1,3,2.3,7.3,7.3,0,0,1,1.45,3.28,22.38,22.38,0,0,1,.23,3.77l0,16.1h-6.85V115.68a5.36,5.36,0,0,0-.46-2.39,3.34,3.34,0,0,0-3.29-1.78,3.84,3.84,0,0,0-3.82,2.29,7.23,7.23,0,0,0-.54,2.93v15.21H680.9V116.73a8.59,8.59,0,0,0-.47-3.3,3.26,3.26,0,0,0-3.31-1.85c-1.9,0-3.18.61-3.84,1.85a7.11,7.11,0,0,0-.54,3.14v15.37H666v-25.5h6.49v3.73a11,11,0,0,1,2.34-2.84,9.28,9.28,0,0,1,9.78-.21,7.5,7.5,0,0,1,2.2,3.07,8.48,8.48,0,0,1,3.26-3.3,10,10,0,0,1,4.59-1.06A8.82,8.82,0,0,1,698,106.49Z"/></svg>