<?xml version="1.0" encoding="utf-8"?>
<!-- Generator: Adobe Illustrator 24.0.3, SVG Export Plug-In . SVG Version: 6.00 Build 0)  -->
<svg version="1.1" id="Layer_1" xmlns="http://www.w3.org/2000/svg" xmlns:xlink="http://www.w3.org/1999/xlink" x="0px" y="0px"
	 viewBox="0 0 164.5 29.9" style="enable-background:new 0 0 164.5 29.9;" xml:space="preserve">
<style type="text/css">
	.st0{fill:none;}
	.st1{fill:#0F7BB6;}
</style>
<g id="clear_space">
	<rect x="-20" y="-20.7" class="st0" width="204.5" height="70.6"/>
</g>
<g id="art">
	<g>
		<g>
			<polygon class="st1" points="92,8.5 95.5,8.5 95.5,22.9 103.7,22.9 103.7,25.8 92,25.8 			"/>
			<path class="st1" d="M104.9,8.5h3.3v3h-3.3V8.5z M104.9,13.4h3.3v12.4h-3.3V13.4z"/>
			<path class="st1" d="M113.5,24.3L113.5,24.3l0,1.6h-3.2V8.5h3.3v6.4h0.1c0.7-1,1.7-1.8,3.5-1.8c3.1,0,5.4,2.7,5.4,6.6
				c0,4-2.1,6.6-5.3,6.6C115.5,26.2,114.3,25.5,113.5,24.3 M119.2,19.6c0-2.3-0.9-3.9-2.8-3.9c-2.1,0-2.9,1.7-2.9,4
				c0,2.3,1.1,3.7,3,3.7C118.2,23.4,119.2,22,119.2,19.6"/>
			<path class="st1" d="M127.2,15.4L127.2,15.4c0.8-1.4,1.7-2.1,3.1-2.1c0.4,0,0.6,0,0.8,0.1v2.9h-0.1c-2.2-0.2-3.7,0.9-3.7,3.5v6.1
				h-3.3V13.4h3.2L127.2,15.4L127.2,15.4z"/>
			<path class="st1" d="M139.7,24.5L139.7,24.5c-0.7,0.9-1.6,1.7-3.7,1.7c-2.5,0-4.3-1.3-4.3-3.8c0-2.7,2.2-3.6,5-4
				c2.1-0.3,3-0.5,3-1.4c0-0.9-0.7-1.5-2.1-1.5c-1.6,0-2.3,0.6-2.4,1.7h-2.9c0.1-2.2,1.7-4.1,5.4-4.1c3.7,0,5.2,1.7,5.2,4.6V24
				c0,0.9,0.1,1.5,0.4,1.7v0.1H140C139.9,25.6,139.7,25,139.7,24.5 M139.7,21.5v-1.9c-0.6,0.3-1.5,0.5-2.3,0.7
				c-1.7,0.4-2.6,0.8-2.6,1.9c0,1.2,0.8,1.6,1.9,1.6C138.6,23.8,139.7,22.7,139.7,21.5"/>
			<path class="st1" d="M148,15.4L148,15.4c0.8-1.4,1.7-2.1,3.1-2.1c0.4,0,0.6,0,0.8,0.1v2.9h-0.1c-2.2-0.2-3.7,0.9-3.7,3.5v6.1
				h-3.3V13.4h3.2L148,15.4L148,15.4z"/>
			<path class="st1" d="M153.8,27.3h1.2c1.3,0,1.8-0.7,1.8-1.7c0-0.7-0.2-1.5-0.9-3.4l-3.3-8.9h3.5l1.8,5.6c0.4,1.1,0.8,2.7,0.8,2.7
				h0c0,0,0.3-1.6,0.7-2.7l1.7-5.6h3.3l-4.3,12.8c-0.9,2.8-1.9,3.8-4.4,3.8h-1.9L153.8,27.3L153.8,27.3z"/>
		</g>
		<g>
			<path class="st1" d="M0.1,18.5C0,17.6,0,16.3,0,15.7L1.4,0.5h5L5,15.8c-0.3,3.3,1,5.7,4.3,5.7c3.4,0,5.2-2.4,5.5-5.4l1.4-15.7h5
				L19.8,16c-0.6,6-4.5,10.4-10.9,10.4C3.9,26.4,0.7,23.2,0.1,18.5"/>
			<path class="st1" d="M22.3,13.4C22.9,6.1,27.9,0,36.4,0c2.2,0,4.4,0.5,6.5,1.9l-0.6,6c-2-2.6-4.3-3-6.4-3c-5.3,0-8.2,3.7-8.6,8.3
				c-0.4,4.5,1.9,8.2,7.1,8.2c2.2,0,4.6-0.6,7.1-3.1l-0.6,6.2c-2.4,1.3-4.7,1.9-6.9,1.9C25.5,26.4,21.7,20.2,22.3,13.4"/>
			<path class="st1" d="M46.9,0.5h5L50,21.1h7.1c0.5,0,2.2,0,2.7-0.1c0,0.2-0.5,4.8-0.5,4.8H44.6L46.9,0.5z"/>
			<path class="st1" d="M72.8,10c0.2-0.4,0.3-0.8,0.4-1.1c0,0,0.1,0,0.1,0c0,0.3,0.1,0.7,0.2,1.1c0.3,1.2,2.2,7.6,2.2,7.6h-6.3
				C69.3,17.5,72.7,10.1,72.8,10 M74-0.7l-0.3,0L60.1,25.8h5.3l1.9-4h9.6l1.2,4h5.3L74-0.7z"/>
		</g>
	</g>
</g>
</svg>
